<?xml version="1.0" encoding="utf-8"?>
<!-- Generator: Adobe Illustrator 24.3.0, SVG Export Plug-In . SVG Version: 6.00 Build 0)  -->
<svg version="1.1" id="Capa_1" xmlns="http://www.w3.org/2000/svg" xmlns:xlink="http://www.w3.org/1999/xlink" x="0px" y="0px"
	 viewBox="0 0 100 100" style="enable-background:new 0 0 100 100;" xml:space="preserve">
<style type="text/css">
	.st0{fill:#00953B;}
</style>
<g>
	<path class="st0" d="M15.2,29.7v54.7c0,1.7,1.3,3,3,3h37.5c1.7,0,3-1.3,3-3v-2.5h21.6c2.7,0,5-2.2,5-5c0-7.4,0-21.4,0-27.9
		c0-2.7-2.2-5-5-5H58.7V29.7c0-1.7-1.3-3-3-3h-4.5c-0.3,0-0.5,0.3-0.5,0.5s0.3,0.5,0.5,0.5h4.5c1,0,1.8,0.8,1.8,1.8
		c0,16.1,0,38.6,0,54.7c0,1-0.8,1.8-1.8,1.8H18.2c-1,0-1.8-0.8-1.8-1.8V29.7c0-1,0.8-1.8,1.8-1.8h4.5c0.3,0,0.5-0.3,0.5-0.5
		s-0.3-0.5-0.5-0.5h-4.5C16.5,26.7,15.2,28,15.2,29.7z M58.7,45.1h21.6c2,0,3.8,1.7,3.8,3.8v19.2H58.7V45.1z M58.7,69.3h25.4v6H58.7
		V69.3z M58.7,76.5h25.4v0.3c0,2-1.7,3.8-3.8,3.8H58.7V76.5z"/>
	<path class="st0" d="M52,56.1c1-0.5,1.6-1.5,1.6-2.7V38.7c-0.2-1.8-1.5-3-3.2-3H23.4c-1.7,0-3,1.3-3,3v14.7c0,1.7,1.3,3,3,3h27.3
		C51.1,56.5,51.6,56.3,52,56.1 M52.3,53.3c0,1-0.8,1.8-1.8,1.8H23.4c-1,0-1.8-0.8-1.8-1.8V38.6c0-1,0.8-1.8,1.8-1.8h27.3
		c1,0,1.8,0.8,1.8,1.8C52.3,38.6,52.3,53.3,52.3,53.3z"/>
	<path class="st0" d="M26.5,77h-3.8c-1.5,0-2.8,1.3-2.8,2.8s1.3,2.8,2.8,2.8h3.8c1.5,0,2.8-1.3,2.8-2.8S28.1,77,26.5,77z M26.5,81.4
		h-3.8c-0.8,0-1.7-0.7-1.7-1.7c0-0.8,0.7-1.7,1.7-1.7h3.8c0.8,0,1.7,0.7,1.7,1.7C28.1,80.7,27.4,81.4,26.5,81.4z"/>
	<path class="st0" d="M38.8,77h-3.8c-1.5,0-2.8,1.3-2.8,2.8s1.3,2.8,2.8,2.8h3.8c1.5,0,2.8-1.3,2.8-2.8S40.3,77,38.8,77z M38.8,81.4
		h-3.8c-0.8,0-1.7-0.7-1.7-1.7c0-0.8,0.7-1.7,1.7-1.7h3.8c0.8,0,1.7,0.7,1.7,1.7S39.8,81.4,38.8,81.4z"/>
	<path class="st0" d="M51.1,77h-3.8c-1.5,0-2.8,1.3-2.8,2.8s1.3,2.8,2.8,2.8h3.8c1.5,0,2.8-1.3,2.8-2.8S52.6,77,51.1,77z M51.1,81.4
		h-3.8c-0.8,0-1.7-0.7-1.7-1.7c0-0.8,0.7-1.7,1.7-1.7h3.8c0.8,0,1.7,0.7,1.7,1.7S52,81.4,51.1,81.4z"/>
	<path class="st0" d="M26.5,68.2h-3.8c-1.5,0-2.8,1.3-2.8,2.8s1.3,2.8,2.8,2.8h3.8c1.5,0,2.8-1.3,2.8-2.8S28.1,68.2,26.5,68.2z
		 M26.5,72.5h-3.8c-0.8,0-1.7-0.7-1.7-1.7c0-0.8,0.7-1.7,1.7-1.7h3.8c0.8,0,1.7,0.7,1.7,1.7C28.1,71.9,27.4,72.5,26.5,72.5z"/>
	<path class="st0" d="M38.8,68.2h-3.8c-1.5,0-2.8,1.3-2.8,2.8s1.3,2.8,2.8,2.8h3.8c1.5,0,2.8-1.3,2.8-2.8S40.3,68.2,38.8,68.2z
		 M38.8,72.5h-3.8c-0.8,0-1.7-0.7-1.7-1.7c0-0.8,0.7-1.7,1.7-1.7h3.8c0.8,0,1.7,0.7,1.7,1.7C40.4,71.9,39.8,72.5,38.8,72.5z"/>
	<path class="st0" d="M51.1,68.2h-3.8c-1.5,0-2.8,1.3-2.8,2.8s1.3,2.8,2.8,2.8h3.8c1.5,0,2.8-1.3,2.8-2.8S52.6,68.2,51.1,68.2z
		 M51.1,72.5h-3.8c-0.8,0-1.7-0.7-1.7-1.7c0-0.8,0.7-1.7,1.7-1.7h3.8c0.8,0,1.7,0.7,1.7,1.7C52.8,71.9,52,72.5,51.1,72.5z"/>
	<path class="st0" d="M26.5,59.3h-3.8c-1.5,0-2.8,1.3-2.8,2.8c0,1.5,1.3,2.8,2.8,2.8h3.8c1.5,0,2.8-1.3,2.8-2.8
		C29.4,60.6,28.1,59.3,26.5,59.3z M26.5,63.7h-3.8C21.9,63.7,21,63,21,62c0-0.8,0.7-1.7,1.7-1.7h3.8c0.8,0,1.7,0.7,1.7,1.7
		C28.1,63,27.4,63.7,26.5,63.7z"/>
	<path class="st0" d="M38.8,59.3h-3.8c-1.5,0-2.7,1.2-2.7,2.8c0,1.5,1.3,2.8,2.8,2.8h3.8c1.5,0,2.8-1.3,2.8-2.8
		C41.8,60.6,40.3,59.3,38.8,59.3z M38.8,63.7h-3.8c-0.8,0-1.7-0.7-1.7-1.7c0-0.8,0.7-1.7,1.7-1.7h3.8c0.8,0,1.7,0.7,1.7,1.7
		C40.4,63,39.8,63.7,38.8,63.7z"/>
	<path class="st0" d="M51.1,59.3h-3.8c-1.5,0-2.8,1.3-2.8,2.8c0,1.5,1.3,2.8,2.8,2.8h3.8c1.5,0,2.8-1.3,2.8-2.8
		C54,60.6,52.6,59.3,51.1,59.3z M51.1,63.7h-3.8c-0.8,0-1.7-0.7-1.7-1.7c0-0.8,0.7-1.7,1.7-1.7h3.8c0.8,0,1.7,0.7,1.7,1.7
		C52.8,63,52,63.7,51.1,63.7z"/>
	<path class="st0" d="M47.8,12.8H26c-0.3,0-0.5,0.3-0.5,0.5v18.1H24c-0.3,0-0.5,0.3-0.5,0.5c0,0.3,0.3,0.5,0.5,0.5
		c9.5,0,16.4,0,25.8,0c0.3,0,0.5-0.3,0.5-0.5c0-0.3-0.3-0.5-0.5-0.5h-1.5V13.5C48.3,13.2,48,12.8,47.8,12.8z M47.1,31.5H26.7V14
		h20.4V31.5z"/>
	<path class="st0" d="M30.7,28.2h12.2c0.3,0,0.5-0.3,0.5-0.5c0-0.3-0.3-0.5-0.5-0.5H30.7c-0.3,0-0.5,0.3-0.5,0.5
		C30.1,27.9,30.4,28.2,30.7,28.2z"/>
	<path class="st0" d="M30.7,18.5h12.2c0.3,0,0.5-0.3,0.5-0.5c0-0.3-0.3-0.5-0.5-0.5H30.7c-0.3,0-0.5,0.3-0.5,0.5
		C30.1,18.2,30.4,18.5,30.7,18.5z"/>
	<path class="st0" d="M43.1,22.2H30.9c-0.3,0-0.5,0.3-0.5,0.5s0.3,0.5,0.5,0.5h12.2c0.3,0,0.5-0.3,0.5-0.5S43.4,22.2,43.1,22.2z"/>
</g>
</svg>
