<?xml version="1.0" standalone="no"?><!-- Generator: Gravit.io --><svg xmlns="http://www.w3.org/2000/svg" xmlns:xlink="http://www.w3.org/1999/xlink" style="isolation:isolate" viewBox="0 0 25 25" width="25" height="25"><defs><clipPath id="_clipPath_S6tjYZapxuKKkUJeJzDo9RAJ68t8Dgvv"><rect width="25" height="25"/></clipPath></defs><g clip-path="url(#_clipPath_S6tjYZapxuKKkUJeJzDo9RAJ68t8Dgvv)"><clipPath id="_clipPath_QKISltWAH9SGRnUJT5iml9aasHLbQINf"><rect x="0" y="0" width="25" height="25" transform="matrix(1,0,0,1,0,0)" fill="rgb(255,255,255)"/></clipPath><g clip-path="url(#_clipPath_QKISltWAH9SGRnUJT5iml9aasHLbQINf)"><g><path d=" M 3.75 9.634 L 3.75 16.098 C 3.75 16.958 2.963 17.644 1.959 17.644 C 0.964 17.644 0 16.952 0 16.098 L 0 9.634 C 0 8.791 0.964 8.098 1.959 8.098 C 2.942 8.098 3.75 8.791 3.75 9.634 Z  M 4.453 18.398 C 4.453 19.314 5.313 20.05 6.38 20.05 L 7.675 20.05 L 7.695 23.461 C 7.695 25.522 11.289 25.505 11.289 23.461 L 11.289 20.05 L 13.711 20.05 L 13.711 23.461 C 13.711 25.509 17.325 25.516 17.325 23.461 L 17.325 20.05 L 18.639 20.05 C 19.694 20.05 20.553 19.314 20.553 18.398 L 20.553 8.383 L 4.453 8.383 L 4.453 18.398 L 4.453 18.398 Z  M 20.598 7.842 L 4.381 7.842 C 4.381 5.453 6.048 3.375 8.522 2.292 L 7.278 0.322 C 7.097 0.048 7.559 -0.125 7.716 0.109 L 8.978 2.097 C 11.25 1.233 13.861 1.277 16.028 2.097 L 17.286 0.116 C 17.448 -0.125 17.903 0.055 17.722 0.328 L 16.478 2.292 C 18.933 3.375 20.598 5.453 20.598 7.842 L 20.598 7.842 Z  M 9.486 4.744 C 9.486 4.425 9.186 4.158 8.802 4.158 C 8.431 4.158 8.138 4.425 8.138 4.744 C 8.138 5.061 8.438 5.33 8.802 5.33 C 9.186 5.33 9.486 5.061 9.486 4.744 Z  M 16.869 4.744 C 16.869 4.425 16.569 4.158 16.205 4.158 C 15.82 4.158 15.52 4.425 15.52 4.744 C 15.52 5.061 15.82 5.33 16.205 5.33 C 16.569 5.33 16.869 5.061 16.869 4.744 Z  M 23.041 8.098 C 22.058 8.098 21.25 8.773 21.25 9.634 L 21.25 16.098 C 21.25 16.958 22.058 17.644 23.041 17.644 C 24.042 17.644 25 16.952 25 16.098 L 25 9.634 C 25 8.773 24.036 8.098 23.041 8.098 Z " fill="rgb(255,255,255)"/></g></g></g></svg>