<?xml version="1.0" standalone="no"?><!-- Generator: Gravit.io --><svg xmlns="http://www.w3.org/2000/svg" xmlns:xlink="http://www.w3.org/1999/xlink" style="isolation:isolate" viewBox="0 0 23 25" width="23" height="25"><defs><clipPath id="_clipPath_E9skHL5g3sJZxzP5dWNNnumr1kr7UH5L"><rect width="23" height="25"/></clipPath></defs><g clip-path="url(#_clipPath_E9skHL5g3sJZxzP5dWNNnumr1kr7UH5L)"><path d=" M 19.23 13.211 C 19.218 11.163 20.232 9.617 22.285 8.478 C 21.136 6.977 19.401 6.151 17.109 5.989 C 14.94 5.833 12.569 7.144 11.702 7.144 C 10.785 7.144 8.683 6.045 7.033 6.045 C 3.624 6.095 0 8.528 0 13.479 C 0 14.941 0.293 16.454 0.88 18.011 C 1.662 20.059 4.485 25.083 7.43 24.999 C 8.97 24.965 10.058 24 12.062 24 C 14.005 24 15.014 24.999 16.731 24.999 C 19.7 24.96 22.255 20.394 23 18.34 C 19.016 16.627 19.23 13.317 19.23 13.211 L 19.23 13.211 Z  M 15.771 4.046 C 17.439 2.238 17.287 0.592 17.238 0 C 15.765 0.078 14.06 0.915 13.089 1.948 C 12.019 3.053 11.39 4.42 11.524 5.961 C 13.119 6.073 14.574 5.325 15.771 4.046 L 15.771 4.046 Z " fill="rgb(255,255,255)"/></g></svg>