<?xml version="1.0" standalone="no"?><!-- Generator: Gravit.io --><svg xmlns="http://www.w3.org/2000/svg" xmlns:xlink="http://www.w3.org/1999/xlink" style="isolation:isolate" viewBox="0 0 70 70" width="70" height="70"><defs><clipPath id="_clipPath_meg5pmhuQQjcUON0QxizcWDqcCSL0gHa"><rect width="70" height="70"/></clipPath></defs><g clip-path="url(#_clipPath_meg5pmhuQQjcUON0QxizcWDqcCSL0gHa)"><path d=" M 46.231 51.243 C 46.615 50.936 47.231 50.936 47.538 51.243 C 47.692 51.397 47.769 51.55 47.769 51.704 L 48.923 51.704 C 48.923 51.166 48.692 50.706 48.308 50.398 C 48.077 50.168 47.769 50.091 47.462 50.014 L 47.462 49.17 L 46.308 49.17 L 46.308 49.938 C 46 50.014 45.692 50.168 45.462 50.322 C 45.077 50.706 44.846 51.166 44.846 51.627 C 44.846 52.165 45.077 52.626 45.462 52.933 C 45.846 53.24 46.385 53.47 46.846 53.47 C 47.077 53.47 47.308 53.547 47.538 53.701 C 47.692 53.854 47.769 54.008 47.769 54.162 C 47.769 54.315 47.692 54.469 47.538 54.622 C 47.154 54.93 46.538 54.93 46.231 54.622 C 46.154 54.546 46 54.392 46 54.162 L 44.846 54.162 C 44.846 54.699 45.077 55.16 45.462 55.467 C 45.692 55.698 46 55.851 46.308 55.928 L 46.308 56.85 L 47.462 56.85 L 47.462 56.005 C 47.769 55.928 48.077 55.774 48.308 55.544 C 48.692 55.16 48.923 54.699 48.923 54.238 C 48.923 53.778 48.692 53.24 48.308 52.933 C 47.923 52.626 47.385 52.395 46.923 52.395 C 46.692 52.395 46.462 52.318 46.231 52.165 C 46.154 52.088 46 51.934 46 51.704 C 46 51.474 46.154 51.32 46.231 51.243 Z " fill="rgb(0,150,57)"/><path d=" M 53.615 37.573 C 52 37.573 50.308 37.88 49.077 38.418 L 49.077 26.59 L 51.385 26.59 C 52.462 26.59 53.385 25.669 53.385 24.594 C 53.385 23.518 52.462 22.597 51.385 22.597 L 50 22.597 L 32.692 11 L 15.385 22.597 L 13.846 22.597 C 12.769 22.597 11.846 23.518 11.846 24.594 C 11.846 25.669 12.769 26.59 13.846 26.59 L 16.154 26.59 L 16.154 44.869 L 14.692 44.869 C 13.615 44.869 12.692 45.79 12.692 46.866 C 12.692 47.173 12.769 47.48 12.923 47.71 L 12 47.71 C 10.923 47.71 10 48.632 10 49.707 C 10 50.782 10.923 51.704 12 51.704 L 33.769 51.704 L 33.769 56.005 C 33.769 57.694 36.385 59 39.846 59 C 41.385 59 42.846 58.693 44 58.232 C 44.846 58.693 45.846 59 46.923 59 C 47.923 59 48.769 58.77 49.615 58.386 C 50.769 58.77 52.154 59 53.615 59 C 56.692 59 60 57.925 60 56.005 L 60 40.568 C 60 38.571 56.692 37.573 53.615 37.573 Z  M 58.846 40.568 C 58.846 41.336 56.769 42.411 53.615 42.411 C 50.385 42.411 48.385 41.336 48.385 40.568 C 48.385 39.8 50.462 38.725 53.615 38.725 C 56.846 38.725 58.846 39.8 58.846 40.568 Z  M 48 39.109 C 47.538 39.493 47.308 39.954 47.308 40.568 L 47.308 47.096 C 47.231 47.096 47.077 47.096 47 47.096 C 46.692 47.096 46.385 47.096 46 47.173 L 46 44.331 C 46 44.101 46 43.947 45.923 43.794 L 45.923 26.59 L 48.077 26.59 L 48.077 39.109 L 48 39.109 Z  M 41.923 49.707 C 41.308 49.861 40.615 49.861 39.923 49.861 C 36.846 49.861 35 48.786 35 48.018 L 35 45.944 C 36.077 46.712 37.846 47.173 39.923 47.173 C 42 47.173 43.769 46.712 44.846 45.944 L 44.846 47.326 C 43.615 47.864 42.615 48.709 41.923 49.707 Z  M 25.692 44.869 L 20.615 44.869 L 20.615 26.59 L 25.692 26.59 L 25.692 44.869 Z  M 26.846 26.59 L 29 26.59 L 29 44.869 L 26.846 44.869 L 26.846 26.59 Z  M 30.154 26.59 L 35.231 26.59 L 35.231 42.258 C 34.385 42.795 33.846 43.41 33.846 44.178 L 33.846 44.792 L 30.154 44.792 L 30.154 26.59 Z  M 39.846 42.411 C 42.923 42.411 44.769 43.486 44.769 44.254 C 44.769 45.022 42.923 46.098 39.846 46.098 C 36.769 46.098 34.923 45.022 34.923 44.254 C 34.923 43.486 36.846 42.411 39.846 42.411 Z  M 44.692 42.411 C 43.615 41.72 41.846 41.259 39.846 41.259 C 39.769 41.259 39.692 41.259 39.615 41.259 L 39.615 26.59 L 44.692 26.59 L 44.692 42.411 Z  M 38.462 41.336 C 37.692 41.413 36.923 41.566 36.308 41.797 L 36.308 26.59 L 38.462 26.59 L 38.462 41.336 Z  M 32.692 12.382 L 47.923 22.674 L 17.385 22.674 L 32.692 12.382 Z  M 13.846 25.438 C 13.385 25.438 13 25.054 13 24.594 C 13 24.133 13.385 23.749 13.846 23.749 L 51.385 23.749 C 51.846 23.749 52.231 24.133 52.231 24.594 C 52.231 25.054 51.846 25.438 51.385 25.438 L 13.846 25.438 Z  M 17.385 26.59 L 19.538 26.59 L 19.538 44.869 L 17.385 44.869 L 17.385 26.59 Z  M 13.846 46.866 C 13.846 46.405 14.231 46.021 14.692 46.021 L 33.769 46.021 L 33.769 47.71 L 14.692 47.71 C 14.231 47.71 13.846 47.326 13.846 46.866 Z  M 12 50.475 C 11.538 50.475 11.154 50.091 11.154 49.63 C 11.154 49.17 11.538 48.786 12 48.786 L 14.692 48.786 L 33.769 48.786 L 33.769 50.475 L 12 50.475 Z  M 34.923 49.861 C 36 50.629 37.769 51.09 39.846 51.09 C 40.308 51.09 40.769 51.09 41.231 51.013 C 41 51.627 40.846 52.318 40.846 53.01 C 40.846 53.317 40.846 53.547 40.923 53.854 C 40.538 53.854 40.154 53.931 39.769 53.931 C 36.692 53.931 34.846 52.856 34.846 52.088 L 34.846 49.861 L 34.923 49.861 Z  M 39.846 57.771 C 36.769 57.771 34.923 56.696 34.923 55.928 L 34.923 53.778 C 36 54.546 37.769 55.006 39.846 55.006 C 40.308 55.006 40.769 55.006 41.231 54.93 C 41.538 55.851 42.154 56.696 42.846 57.387 C 42 57.618 41 57.771 39.846 57.771 Z  M 42.077 53.01 C 42.077 50.322 44.231 48.171 46.923 48.171 C 49.615 48.171 51.769 50.322 51.769 53.01 C 51.769 55.698 49.615 57.848 46.923 57.848 C 44.231 57.771 42.077 55.621 42.077 53.01 Z  M 53.615 57.771 C 52.615 57.771 51.615 57.618 50.769 57.464 C 51.462 56.85 52 56.082 52.385 55.237 C 52.769 55.237 53.154 55.314 53.615 55.314 C 55.615 55.314 57.615 54.853 58.846 54.085 L 58.846 55.928 C 58.846 56.696 56.846 57.771 53.615 57.771 Z  M 53.615 54.162 C 53.308 54.162 53 54.162 52.769 54.162 C 52.846 53.778 52.923 53.394 52.923 53.01 C 52.923 52.472 52.846 51.934 52.692 51.397 C 53 51.397 53.308 51.397 53.692 51.397 C 55.692 51.397 57.692 50.936 58.923 50.168 L 58.923 52.318 C 58.846 53.086 56.846 54.162 53.615 54.162 Z  M 53.615 50.245 C 53.154 50.245 52.615 50.245 52.154 50.168 C 51.385 48.709 50 47.634 48.385 47.25 L 48.385 46.251 C 49.615 47.019 51.692 47.48 53.615 47.48 C 55.615 47.48 57.615 47.019 58.846 46.251 L 58.846 48.402 C 58.846 49.17 56.846 50.245 53.615 50.245 Z  M 53.615 46.328 C 50.385 46.328 48.385 45.253 48.385 44.485 L 48.385 42.258 C 49.615 43.026 51.692 43.486 53.615 43.486 C 55.615 43.486 57.615 43.026 58.846 42.258 L 58.846 44.408 C 58.846 45.253 56.846 46.328 53.615 46.328 Z " fill="rgb(0,150,57)"/><rect x="39.538" y="20.062" width="1.154" height="1.152" transform="matrix(1,0,0,1,0,0)" fill="rgb(0,150,57)"/><rect x="36.615" y="20.062" width="1.154" height="1.152" transform="matrix(1,0,0,1,0,0)" fill="rgb(0,150,57)"/><rect x="33.615" y="20.062" width="1.154" height="1.152" transform="matrix(1,0,0,1,0,0)" fill="rgb(0,150,57)"/><rect x="27.769" y="20.062" width="1.154" height="1.152" transform="matrix(1,0,0,1,0,0)" fill="rgb(0,150,57)"/><rect x="24.846" y="20.062" width="1.154" height="1.152" transform="matrix(1,0,0,1,0,0)" fill="rgb(0,150,57)"/><rect x="30.692" y="20.062" width="1.154" height="1.152" transform="matrix(1,0,0,1,0,0)" fill="rgb(0,150,57)"/></g></svg>