<?xml version="1.0" standalone="no"?><!-- Generator: Gravit.io --><svg xmlns="http://www.w3.org/2000/svg" xmlns:xlink="http://www.w3.org/1999/xlink" style="isolation:isolate" viewBox="0 0 70 70" width="70" height="70"><defs><clipPath id="_clipPath_IuslFzoCRgeoCnzrcrxvHmtKa7f8Am4m"><rect width="70" height="70"/></clipPath></defs><g clip-path="url(#_clipPath_IuslFzoCRgeoCnzrcrxvHmtKa7f8Am4m)"><path d=" M 59.75 16.35 L 45.662 16.35 L 41.549 27.559 L 37.437 16.35 L 10.25 16.35 L 15.048 29.395 L 15.048 53.65 L 54.952 53.65 L 54.952 29.395 L 59.75 16.35 Z  M 46.347 17.799 L 57.998 17.799 L 54.038 28.526 L 42.463 28.526 L 46.347 17.799 Z  M 36.752 17.799 L 40.712 28.526 L 15.962 28.526 L 12.002 17.799 L 36.752 17.799 Z  M 41.016 52.201 L 16.19 52.201 L 16.19 29.975 L 41.016 29.975 L 41.016 52.201 Z  M 53.81 52.201 L 42.082 52.201 L 42.082 29.975 L 53.81 29.975 L 53.81 52.201 Z " fill="rgb(0,150,57)"/><rect x="18.094" y="48.625" width="1.142" height="1.449" transform="matrix(1,0,0,1,0,0)" fill="rgb(0,150,57)"/><rect x="20.302" y="48.625" width="1.142" height="1.449" transform="matrix(1,0,0,1,0,0)" fill="rgb(0,150,57)"/><rect x="22.587" y="48.625" width="1.142" height="1.449" transform="matrix(1,0,0,1,0,0)" fill="rgb(0,150,57)"/></g></svg>