<?xml version="1.0" standalone="no"?><!-- Generator: Gravit.io --><svg xmlns="http://www.w3.org/2000/svg" xmlns:xlink="http://www.w3.org/1999/xlink" style="isolation:isolate" viewBox="0 0 70 70" width="70" height="70"><defs><clipPath id="_clipPath_ukggc3l5rD2N6uHuFIXPHLa0haAHWJ0e"><rect width="70" height="70"/></clipPath></defs><g clip-path="url(#_clipPath_ukggc3l5rD2N6uHuFIXPHLa0haAHWJ0e)"><path d=" M 46.077 19.273 L 45.615 14.568 C 45.523 13.646 44.785 13 43.862 13 L 26.138 13 C 25.215 13 24.477 13.646 24.385 14.568 L 23.923 19.273 L 5 19.273 L 5 57 L 65 57 L 65 19.273 L 46.077 19.273 Z  M 25.769 14.66 C 25.769 14.476 25.954 14.384 26.138 14.384 L 43.862 14.384 C 44.046 14.384 44.231 14.476 44.231 14.66 L 44.692 19.18 L 25.308 19.18 L 25.769 14.66 Z  M 63.615 55.524 L 6.385 55.524 L 6.385 33.939 C 9.892 39.474 19.862 43.532 32.415 44.086 L 32.415 45.654 L 35 47.868 L 37.677 45.654 L 37.677 44.086 C 50.138 43.532 60.108 39.474 63.708 33.939 L 63.708 55.524 L 63.615 55.524 Z  M 33.708 45.101 L 33.708 40.95 L 36.2 40.95 L 36.2 45.101 L 34.908 46.208 L 33.708 45.101 Z  M 63.615 29.512 C 63.615 36.338 52.262 42.057 37.585 42.702 L 37.585 39.474 L 32.323 39.474 L 32.323 42.702 C 17.831 42.149 6.477 36.43 6.385 29.604 L 6.385 20.564 L 23.738 20.564 L 46.169 20.564 L 63.523 20.564 L 63.523 29.512 L 63.615 29.512 Z " fill="rgb(0,150,57)"/><rect x="8.969" y="51.834" width="1.385" height="1.384" transform="matrix(1,0,0,1,0,0)" fill="rgb(0,150,57)"/><rect x="16.446" y="51.834" width="1.385" height="1.384" transform="matrix(1,0,0,1,0,0)" fill="rgb(0,150,57)"/><rect x="12.662" y="51.834" width="1.385" height="1.384" transform="matrix(1,0,0,1,0,0)" fill="rgb(0,150,57)"/><rect x="15.338" y="25.914" width="39.415" height="1.384" transform="matrix(1,0,0,1,0,0)" fill="rgb(0,150,57)"/><rect x="21.8" y="30.895" width="26.308" height="1.384" transform="matrix(1,0,0,1,0,0)" fill="rgb(0,150,57)"/></g></svg>