<?xml version="1.0" standalone="no"?><!-- Generator: Gravit.io --><svg xmlns="http://www.w3.org/2000/svg" xmlns:xlink="http://www.w3.org/1999/xlink" style="isolation:isolate" viewBox="0 0 75 75" width="75" height="75"><defs><clipPath id="_clipPath_nQReHifAg2KsoVKHMkdSTR4Rz3Q7sBr8"><rect width="75" height="75"/></clipPath></defs><g clip-path="url(#_clipPath_nQReHifAg2KsoVKHMkdSTR4Rz3Q7sBr8)"><path d=" M 71.885 58.658 C 71.077 54.455 67.846 51.07 63.808 50.136 L 50.077 46.868 L 45.923 41.148 C 49.731 38.113 52.615 33.561 52.846 28.541 C 53.885 27.607 57.115 24.689 57 21.654 C 56.885 18.736 55.038 18.502 54.346 18.502 C 54.231 18.502 54.115 18.502 54.115 18.502 L 54.577 13.833 C 54.923 8.113 52.154 6.129 50.423 5.545 C 49.5 5.195 48.462 4.612 47.192 3.911 C 39.692 -0.408 35.654 -0.058 34.962 0.059 C 27.577 0.059 25.385 3.911 24.808 5.429 C 18.462 6.129 18.808 12.432 18.923 15.467 C 18.923 15.934 18.923 16.401 18.923 16.868 C 18.923 17.102 18.923 17.452 18.923 17.685 C 18.923 17.802 18.923 17.919 18.923 17.919 L 18.923 17.919 C 18.923 18.152 18.923 18.502 19.038 18.736 C 18.231 18.736 16.5 19.086 16.5 21.888 C 16.385 24.923 19.615 27.841 20.654 28.775 C 20.885 33.677 23.885 38.23 27.577 41.148 L 23.423 47.101 L 11.192 50.136 C 7.038 51.07 3.808 54.455 3 58.774 L 0 75 L 75 75 L 71.885 58.658 Z  M 49.615 47.685 L 49.615 47.685 L 49.615 47.685 L 49.615 47.685 Z  M 25.615 7.18 L 26.308 7.18 L 26.423 6.479 C 26.423 6.246 27.462 1.81 35.192 1.81 L 35.308 1.81 C 35.308 1.81 35.538 1.81 35.885 1.81 C 37.154 1.81 40.615 2.16 46.385 5.545 C 47.769 6.362 48.808 6.829 49.846 7.296 C 51.115 7.763 53.077 9.281 52.846 13.833 L 52.5 17.102 C 48.462 13.133 42.577 15.001 41.885 15.351 C 33.115 17.102 30.115 16.518 27.115 15.934 C 26.308 15.818 25.385 15.584 24.346 15.467 C 22.846 15.234 21.692 15.351 20.769 15.701 C 20.769 15.701 20.769 15.584 20.769 15.584 C 20.538 11.265 20.769 7.413 25.615 7.18 Z  M 22.5 28.425 L 22.5 27.958 L 22.154 27.724 C 21.115 26.907 18.231 24.222 18.346 22.004 C 18.346 20.604 18.923 20.604 19.269 20.604 C 19.731 20.604 20.192 20.37 20.538 20.02 C 20.769 19.67 21 19.203 20.885 18.853 C 20.885 18.502 20.769 18.152 20.769 17.802 C 20.769 17.802 20.769 17.569 20.885 17.452 C 21.115 17.218 21.808 16.868 24 17.102 C 24.923 17.218 25.846 17.452 26.654 17.569 C 29.885 18.269 33 18.853 42.231 16.985 L 42.346 16.985 C 42.577 16.868 48.923 14.3 52.385 19.786 L 52.385 19.786 C 52.385 19.903 52.5 19.903 52.5 20.02 C 52.731 20.253 53.077 20.487 53.538 20.487 L 53.885 20.487 C 54 20.487 54.231 20.487 54.346 20.487 C 54.577 20.487 55.269 20.487 55.269 22.004 C 55.269 24.222 52.5 26.907 51.462 27.724 L 51.115 27.958 L 51.115 28.425 C 51.115 36.479 43.269 43.249 36.808 43.249 C 31.269 43.016 22.615 36.829 22.5 28.425 Z  M 2.077 73.249 L 4.731 59.125 C 5.423 55.506 8.077 52.704 11.538 51.887 L 23.538 49.086 L 30 73.366 L 2.077 73.366 L 2.077 73.249 Z  M 33.808 73.249 L 35.308 57.374 L 38.308 57.374 L 39.808 73.249 L 33.808 73.249 Z  M 38.538 55.623 L 34.962 55.623 L 33.231 52.588 L 40.154 52.588 L 38.538 55.623 Z  M 41.423 73.249 L 39.923 56.673 L 42.462 52.238 C 42.577 52.004 42.577 51.654 42.462 51.42 C 42.346 51.187 42 50.954 41.769 50.954 L 31.846 50.954 C 31.5 50.954 31.269 51.07 31.154 51.42 C 31.038 51.654 31.038 52.004 31.154 52.238 L 33.692 56.673 L 32.192 73.249 L 31.731 73.249 L 25.038 48.152 L 29.192 42.199 C 31.615 43.833 34.385 44.767 36.808 44.767 C 39.346 44.767 42 43.833 44.538 42.199 L 48.692 47.802 L 42 73.249 L 41.423 73.249 Z  M 50.192 48.736 L 63.462 51.771 C 66.923 52.588 69.577 55.389 70.269 59.008 L 72.923 73.249 L 43.615 73.249 L 50.192 48.736 Z " fill="rgb(0,150,57)"/></g></svg>