<?xml version="1.0" standalone="no"?><!-- Generator: Gravit.io --><svg xmlns="http://www.w3.org/2000/svg" xmlns:xlink="http://www.w3.org/1999/xlink" style="isolation:isolate" viewBox="0 0 24 25" width="24" height="25"><defs><clipPath id="_clipPath_IZE1MT6C5TweFPlqG7jQMVi35qmeEmy0"><rect width="24" height="25"/></clipPath></defs><g clip-path="url(#_clipPath_IZE1MT6C5TweFPlqG7jQMVi35qmeEmy0)"><path d=" M 8.493 8.062 C 8.493 8.062 9.526 6.938 9.648 6.812 C 9.83 6.625 9.952 6.313 9.952 5.812 C 9.891 4.75 8.979 3.312 7.582 2 C 6.245 0.75 4.787 0 3.754 0 C 3.207 0 2.842 0.25 2.721 0.437 L 2.66 0.5 C 2.113 1.062 1.809 1.375 1.688 1.563 C -0.804 4.875 -0.5 9.562 2.356 12.562 L 12.078 22.562 C 13.597 24.125 15.663 25 17.79 25 C 17.79 25 17.79 25 17.79 25 C 19.552 25 21.314 24.375 22.773 23.25 C 23.016 23.063 23.441 22.687 23.563 22.562 C 24.535 21.625 23.806 19.063 22.165 17.313 C 21.314 16.375 20.342 15.687 19.492 15.375 L 19.431 15.375 C 19.188 15.25 18.884 15.187 18.641 15.125 L 18.519 15.125 C 18.155 15.125 17.729 15.25 17.304 15.5 C 17.122 15.625 16.818 15.875 16.453 16.188 C 16.332 16.312 16.271 16.375 16.21 16.375 C 15.967 16.563 15.663 16.563 15.36 16.437 C 15.36 16.375 8.858 9.688 8.858 9.688 C 8.25 9.125 8.311 8.5 8.432 8.188 C 8.432 8.125 8.493 8.062 8.493 8.062 Z  M 17.851 16.25 C 18.094 16.063 18.337 16 18.58 16 C 18.762 16 18.945 16.063 19.127 16.188 C 19.856 16.5 20.768 17.125 21.497 17.938 C 23.016 19.5 23.32 21.437 22.894 21.875 C 22.834 21.937 22.53 22.188 22.287 22.375 L 17 16.937 C 17 16.937 17.061 16.875 17.061 16.875 C 17.365 16.688 17.729 16.375 17.851 16.25 Z  M 14.205 16.5 C 14.387 16.688 14.873 17.125 15.117 17.25 C 15.481 17.438 15.846 17.438 16.21 17.375 L 21.618 22.938 C 20.464 23.625 19.188 24.063 17.851 24.063 C 17.851 24.063 17.851 24.063 17.851 24.063 C 15.906 24.063 14.144 23.312 12.747 21.875 L 3.024 11.875 C 0.655 9.438 0.29 5.625 1.991 2.75 L 7.46 8.375 C 7.399 9 7.582 9.75 8.25 10.375 L 14.205 16.5 Z  M 7.886 7.375 C 7.825 7.375 7.825 7.437 7.886 7.375 L 2.538 2 C 2.66 1.875 2.903 1.625 3.328 1.125 L 3.389 1.062 C 3.45 0.938 3.632 0.938 3.754 0.938 C 4.422 0.938 5.637 1.5 6.974 2.687 C 8.372 3.937 9.04 5.187 9.04 5.875 C 9.04 6 9.04 6.125 8.979 6.187 C 8.919 6.25 7.886 7.375 7.886 7.375 Z " fill="rgb(0,150,57)"/></g></svg>