<?xml version="1.0" standalone="no"?><!-- Generator: Gravit.io --><svg xmlns="http://www.w3.org/2000/svg" xmlns:xlink="http://www.w3.org/1999/xlink" style="isolation:isolate" viewBox="0 0 70 70" width="70" height="70"><defs><clipPath id="_clipPath_oZQ2LoCn2ENugt8sVrvgwaaR4ThyBqxn"><rect width="70" height="70"/></clipPath></defs><g clip-path="url(#_clipPath_oZQ2LoCn2ENugt8sVrvgwaaR4ThyBqxn)"><g><g><path d=" M 16.786 54.082 C 16.786 55.047 17.458 55.832 18.286 55.832 L 22.286 55.832 C 23.113 55.832 23.786 55.047 23.786 54.082 L 23.786 51.317 L 16.786 51.317 L 16.786 54.082 Z " fill="none"/><path d=" M 13.569 28.564 L 13.873 27.748 L 14.004 27.396 L 14.009 27.396 C 14.244 26.781 14.491 26.176 14.749 25.584 L 12.5 25.584 C 11.673 25.584 11 26.37 11 27.335 L 11 28.626 C 11 29.592 11.673 30.377 12.5 30.377 L 13.003 30.377 C 13.177 29.778 13.375 29.172 13.586 28.564 L 13.569 28.564 Z " fill="none"/><path d=" M 47.213 51.317 L 47.213 54.082 C 47.213 55.047 47.886 55.832 48.713 55.832 L 52.713 55.832 C 53.541 55.832 54.213 55.047 54.213 54.082 L 54.213 51.317 L 47.213 51.317 Z " fill="none"/><path d=" M 55.894 27.396 C 53.915 22.411 51.11 18.174 49.055 15.443 C 47.995 14.034 46.494 13.226 44.936 13.226 L 26.063 13.226 C 24.505 13.226 23.004 14.034 21.943 15.443 C 19.888 18.174 17.083 22.411 15.104 27.396 L 55.894 27.396 Z " fill="none"/><path d=" M 22.521 33.792 C 22.256 33.544 21.923 33.408 21.584 33.408 L 17.286 33.408 C 17.011 33.408 16.786 33.67 16.786 33.991 L 16.786 36.326 C 16.786 36.648 17.011 36.909 17.286 36.909 L 24.435 36.909 C 24.764 36.909 24.879 36.611 24.907 36.519 C 24.934 36.427 25.004 36.11 24.747 35.87 L 22.521 33.792 Z " fill="none"/><path d=" M 12.786 46.064 C 12.786 48.316 14.356 50.15 16.286 50.15 L 54.714 50.15 C 56.644 50.15 58.213 48.317 58.213 46.064 L 58.213 42.922 L 12.786 42.922 L 12.786 46.064 Z " fill="none"/><path d=" M 56.338 28.564 L 14.661 28.564 C 13.416 32.009 12.786 35.305 12.786 38.366 L 12.786 41.755 L 58.213 41.755 L 58.213 38.366 C 58.213 35.304 57.583 32.009 56.338 28.564 Z  M 25.85 36.906 C 25.636 37.617 25.08 38.077 24.434 38.077 L 17.285 38.077 C 16.458 38.077 15.786 37.292 15.786 36.326 L 15.786 33.992 C 15.786 33.026 16.458 32.241 17.285 32.241 L 21.584 32.241 C 22.148 32.241 22.703 32.469 23.145 32.881 L 25.371 34.96 C 25.877 35.431 26.064 36.195 25.85 36.906 Z  M 40.5 36.91 L 30.5 36.91 C 30.224 36.91 30 36.648 30 36.326 C 30 36.003 30.224 35.743 30.5 35.743 L 40.5 35.743 C 40.776 35.743 40.999 36.004 40.999 36.326 C 40.999 36.649 40.776 36.91 40.5 36.91 Z  M 42.999 34.575 L 28 34.575 C 27.724 34.575 27.5 34.314 27.5 33.992 C 27.5 33.669 27.724 33.408 28 33.408 L 43 33.408 C 43.276 33.408 43.499 33.67 43.499 33.992 C 43.499 34.314 43.276 34.575 42.999 34.575 Z  M 55.213 36.326 C 55.213 37.292 54.541 38.077 53.713 38.077 L 46.564 38.077 C 45.919 38.077 45.363 37.618 45.149 36.906 C 44.935 36.195 45.122 35.431 45.627 34.96 L 47.854 32.88 C 48.296 32.468 48.85 32.24 49.415 32.24 L 53.713 32.24 C 54.541 32.24 55.213 33.026 55.213 33.991 L 55.213 36.326 L 55.213 36.326 Z " fill="none"/><path d=" M 53.713 33.408 L 49.415 33.408 C 49.076 33.408 48.743 33.544 48.478 33.792 L 46.252 35.87 C 45.996 36.111 46.065 36.428 46.093 36.519 C 46.121 36.611 46.236 36.91 46.565 36.91 L 53.714 36.91 C 53.989 36.91 54.214 36.648 54.214 36.326 L 54.214 33.992 C 54.213 33.67 53.989 33.408 53.713 33.408 Z " fill="none"/><path d=" M 58.499 25.584 L 56.25 25.584 C 56.508 26.177 56.755 26.781 56.99 27.396 L 56.995 27.396 L 57.126 27.748 L 57.43 28.564 L 57.412 28.564 C 57.623 29.172 57.821 29.778 57.996 30.377 L 58.499 30.377 C 59.326 30.377 59.999 29.592 59.999 28.626 L 59.999 27.335 C 59.999 26.369 59.326 25.584 58.499 25.584 Z " fill="none"/><path d=" M 58.499 24.416 L 55.721 24.416 C 53.835 20.393 51.556 16.997 49.807 14.672 C 48.557 13.011 46.782 12.058 44.936 12.058 L 26.063 12.058 C 24.217 12.058 22.442 13.011 21.192 14.672 C 19.443 16.997 17.164 20.393 15.278 24.416 L 12.5 24.416 C 11.121 24.416 10 25.725 10 27.335 L 10 28.626 C 10 30.235 11.121 31.544 12.5 31.544 L 12.689 31.544 C 12.093 33.905 11.786 36.189 11.786 38.366 L 11.786 41.755 L 11.786 42.922 L 11.786 46.064 C 11.786 48.764 13.539 50.991 15.786 51.283 L 15.786 54.082 C 15.786 55.69 16.908 57 18.286 57 L 22.286 57 C 23.665 57 24.786 55.691 24.786 54.082 L 24.786 51.317 L 46.214 51.317 L 46.214 54.082 C 46.214 55.69 47.336 57 48.714 57 L 52.714 57 C 54.092 57 55.214 55.691 55.214 54.082 L 55.214 51.283 C 57.461 50.991 59.214 48.763 59.214 46.064 L 59.214 42.922 L 59.214 41.755 L 59.214 38.366 C 59.214 36.189 58.908 33.905 58.311 31.544 L 58.5 31.544 C 59.878 31.544 61 30.235 61 28.626 L 61 27.335 C 60.999 25.725 59.877 24.416 58.499 24.416 Z  M 21.943 15.443 C 23.004 14.034 24.505 13.226 26.063 13.226 L 44.936 13.226 C 46.494 13.226 47.995 14.034 49.055 15.443 C 51.11 18.174 53.916 22.411 55.894 27.396 L 15.104 27.396 C 17.084 22.411 19.889 18.174 21.943 15.443 Z  M 12.5 30.377 C 11.673 30.377 11 29.592 11 28.626 L 11 27.335 C 11 26.369 11.673 25.584 12.5 25.584 L 14.749 25.584 C 14.491 26.177 14.245 26.781 14.009 27.396 L 14.004 27.396 L 13.873 27.748 L 13.569 28.564 L 13.587 28.564 C 13.376 29.172 13.178 29.778 13.004 30.377 L 12.5 30.377 Z  M 23.786 54.082 C 23.786 55.047 23.113 55.832 22.286 55.832 L 18.286 55.832 C 17.458 55.832 16.786 55.047 16.786 54.082 L 16.786 51.317 L 23.786 51.317 L 23.786 54.082 Z  M 52.713 55.832 L 48.713 55.832 C 47.886 55.832 47.213 55.047 47.213 54.082 L 47.213 51.317 L 54.213 51.317 L 54.213 54.082 C 54.213 55.047 53.541 55.832 52.713 55.832 Z  M 58.213 46.064 C 58.213 48.316 56.643 50.15 54.714 50.15 L 16.286 50.15 C 14.356 50.15 12.786 48.317 12.786 46.064 L 12.786 42.922 L 58.213 42.922 L 58.213 46.064 Z  M 12.786 41.754 L 12.786 38.366 C 12.786 35.304 13.416 32.009 14.661 28.563 L 56.338 28.563 C 57.583 32.008 58.213 35.304 58.213 38.366 L 58.213 41.754 L 12.786 41.754 Z  M 59.999 28.626 C 59.999 29.592 59.326 30.377 58.499 30.377 L 57.996 30.377 C 57.822 29.778 57.623 29.172 57.412 28.564 L 57.43 28.564 L 57.126 27.748 L 56.995 27.396 L 56.99 27.396 C 56.755 26.781 56.508 26.176 56.25 25.584 L 58.499 25.584 C 59.327 25.584 59.999 26.37 59.999 27.335 L 59.999 28.626 L 59.999 28.626 Z " fill="rgb(0,150,57)"/><path d=" M 25.372 34.959 L 23.146 32.88 C 22.704 32.468 22.149 32.24 21.584 32.24 L 17.286 32.24 C 16.459 32.24 15.786 33.026 15.786 33.991 L 15.786 36.326 C 15.786 37.291 16.459 38.076 17.286 38.076 L 24.435 38.076 C 25.081 38.076 25.636 37.617 25.85 36.906 C 26.064 36.195 25.877 35.431 25.372 34.959 Z  M 24.906 36.519 C 24.879 36.611 24.763 36.91 24.434 36.91 L 17.285 36.91 C 17.01 36.91 16.786 36.648 16.786 36.326 L 16.786 33.992 C 16.786 33.67 17.01 33.408 17.285 33.408 L 21.584 33.408 C 21.922 33.408 22.256 33.545 22.521 33.793 L 24.747 35.871 C 25.004 36.111 24.934 36.428 24.906 36.519 Z " fill="rgb(0,150,57)"/><path d=" M 53.713 32.24 L 49.415 32.24 C 48.85 32.24 48.296 32.468 47.854 32.88 L 45.627 34.96 C 45.123 35.431 44.935 36.195 45.149 36.906 C 45.363 37.617 45.919 38.077 46.564 38.077 L 53.713 38.077 C 54.541 38.077 55.213 37.292 55.213 36.326 L 55.213 33.992 C 55.213 33.026 54.541 32.24 53.713 32.24 Z  M 54.213 36.326 C 54.213 36.648 53.989 36.91 53.713 36.91 L 46.564 36.91 C 46.236 36.91 46.12 36.611 46.092 36.519 C 46.065 36.428 45.995 36.111 46.252 35.87 L 48.478 33.792 C 48.743 33.544 49.076 33.408 49.415 33.408 L 53.713 33.408 C 53.988 33.408 54.213 33.67 54.213 33.991 L 54.213 36.326 L 54.213 36.326 Z " fill="rgb(0,150,57)"/><path d=" M 42.999 33.408 L 28 33.408 C 27.724 33.408 27.5 33.669 27.5 33.991 C 27.5 34.314 27.724 34.575 28 34.575 L 43 34.575 C 43.276 34.575 43.499 34.313 43.499 33.991 C 43.499 33.669 43.276 33.408 42.999 33.408 Z " fill="rgb(0,150,57)"/><path d=" M 40.5 35.742 L 30.5 35.742 C 30.224 35.742 30 36.003 30 36.326 C 30 36.648 30.224 36.909 30.5 36.909 L 40.5 36.909 C 40.776 36.909 40.999 36.648 40.999 36.326 C 40.999 36.003 40.776 35.742 40.5 35.742 Z " fill="rgb(0,150,57)"/></g></g></g></svg>