<?xml version="1.0" standalone="no"?><!-- Generator: Gravit.io --><svg xmlns="http://www.w3.org/2000/svg" xmlns:xlink="http://www.w3.org/1999/xlink" style="isolation:isolate" viewBox="0 0 70 70" width="70" height="70"><defs><clipPath id="_clipPath_3NK0CGzhnOwe2Peqlx5ic43RUCxz7jdy"><rect width="70" height="70"/></clipPath></defs><g clip-path="url(#_clipPath_3NK0CGzhnOwe2Peqlx5ic43RUCxz7jdy)"><path d=" M 37.824 38.622 C 38.504 39.115 38.894 39.774 38.894 40.432 L 40.353 40.432 C 40.353 39.362 39.769 38.457 38.796 37.716 C 38.018 37.14 37.046 36.811 35.976 36.728 L 35.976 33.93 L 34.517 33.93 L 34.517 36.728 C 33.447 36.811 32.474 37.222 31.696 37.716 C 30.723 38.457 30.14 39.362 30.14 40.432 C 30.14 41.502 30.723 42.408 31.696 43.148 C 32.669 43.807 33.933 44.218 35.197 44.218 C 36.17 44.218 37.143 44.465 37.824 45.042 C 38.504 45.535 38.894 46.194 38.894 46.852 C 38.894 47.511 38.504 48.169 37.824 48.663 C 36.462 49.651 34.03 49.651 32.571 48.663 C 31.89 48.169 31.501 47.511 31.501 46.852 L 30.042 46.852 C 30.042 47.922 30.626 48.828 31.599 49.568 C 32.377 50.145 33.349 50.474 34.419 50.556 L 34.419 53.355 L 35.878 53.355 L 35.878 50.556 C 36.948 50.474 37.921 50.062 38.699 49.568 C 39.672 48.828 40.255 47.922 40.255 46.852 C 40.255 45.782 39.672 44.877 38.699 44.136 C 37.726 43.478 36.462 43.066 35.197 43.066 C 34.225 43.066 33.252 42.819 32.571 42.243 C 31.89 41.749 31.501 41.091 31.501 40.432 C 31.501 39.774 31.89 39.115 32.571 38.622 C 33.933 37.634 36.365 37.634 37.824 38.622 Z " fill="rgb(0,150,57)"/><path d=" M 28.681 17.962 L 30.14 18.127 C 30.334 16.728 29.167 15.082 28 13.518 C 27.319 12.53 26.249 11.213 26.444 10.719 C 26.444 10.719 26.444 10.637 26.638 10.637 C 27.124 10.472 27.708 10.719 28.389 11.131 C 28.875 11.378 29.362 11.625 29.848 11.707 C 31.112 11.789 31.793 11.213 32.474 10.719 C 33.058 10.225 33.349 10.061 33.738 10.143 C 33.836 10.225 33.933 10.308 34.03 10.39 C 34.322 10.719 34.711 11.213 35.295 11.378 C 37.046 11.872 38.407 11.048 39.574 10.308 C 40.255 9.814 40.936 9.402 41.52 9.402 C 41.52 9.402 41.52 9.402 41.52 9.402 C 42.103 9.402 42.298 9.485 42.395 9.485 C 42.395 9.732 41.714 10.555 41.422 10.884 L 41.131 11.213 C 39.574 13.024 38.504 15.411 38.115 17.962 L 39.574 18.127 C 39.963 15.822 40.936 13.6 42.395 11.954 L 42.59 11.707 C 43.27 10.884 44.146 9.896 43.66 9.073 C 43.173 8.25 41.909 8.25 41.52 8.25 C 41.52 8.25 41.52 8.25 41.52 8.25 C 40.45 8.25 39.477 8.826 38.699 9.402 C 37.532 10.143 36.754 10.555 35.781 10.308 C 35.587 10.225 35.392 9.978 35.197 9.732 C 34.906 9.402 34.711 9.155 34.322 9.073 C 32.96 8.744 32.182 9.402 31.501 9.896 C 30.918 10.308 30.529 10.555 29.945 10.555 C 29.848 10.555 29.459 10.308 29.167 10.225 C 28.389 9.814 27.222 9.155 25.957 9.649 C 25.374 9.896 25.082 10.225 24.985 10.555 C 24.596 11.542 25.568 12.859 26.638 14.341 C 27.708 15.575 28.875 17.057 28.681 17.962 Z " fill="rgb(0,150,57)"/><path d=" M 52.413 38.045 C 50.468 35.247 48.134 32.695 45.799 30.226 C 43.757 28.004 41.52 25.699 39.769 23.23 L 38.504 23.888 C 40.353 26.44 42.492 28.745 44.632 31.049 C 46.869 33.518 49.301 35.988 51.149 38.786 C 52.802 41.173 57.568 49.322 51.83 55.248 C 46.286 61.009 35.392 61.75 27.514 59.528 C 22.456 58.128 18.76 55.577 16.912 52.367 L 19.635 52.367 L 19.635 51.05 L 16.328 51.05 C 15.939 50.145 15.745 49.239 15.55 48.252 L 21.094 48.252 L 21.094 47.017 L 15.453 47.017 C 15.453 46.029 15.55 45.124 15.745 44.218 L 18.468 44.218 L 18.468 42.984 L 16.036 42.984 C 17.203 39.362 20.024 36.317 22.942 33.189 C 25.568 30.308 28.292 27.345 29.848 23.806 L 28.486 23.395 C 27.027 26.769 24.401 29.65 21.775 32.448 C 17.787 36.811 13.605 41.338 13.994 47.593 C 14.286 53.602 19.052 58.293 27.027 60.515 C 29.751 61.256 32.96 61.75 36.073 61.75 C 42.395 61.75 48.912 60.022 52.9 55.906 C 59.319 49.404 54.164 40.597 52.413 38.045 Z " fill="rgb(0,150,57)"/><path d=" M 40.158 20.843 C 40.158 19.855 39.185 19.115 38.115 19.115 L 30.042 19.115 C 28.875 19.115 28 19.938 28 20.843 C 28 21.831 28.973 22.572 30.042 22.572 L 38.115 22.572 C 39.283 22.572 40.158 21.831 40.158 20.843 Z  M 38.115 21.337 L 30.042 21.337 C 29.751 21.337 29.459 21.09 29.459 20.843 C 29.459 20.596 29.751 20.349 30.042 20.349 L 38.115 20.349 C 38.407 20.349 38.699 20.596 38.699 20.843 C 38.796 21.172 38.504 21.337 38.115 21.337 Z " fill="rgb(0,150,57)"/></g></svg>