<?xml version="1.0" standalone="no"?><!-- Generator: Gravit.io --><svg xmlns="http://www.w3.org/2000/svg" xmlns:xlink="http://www.w3.org/1999/xlink" style="isolation:isolate" viewBox="0 0 26 25" width="26" height="25"><defs><clipPath id="_clipPath_CtaUKk7aBMMzdkLecMrPmInOUbwH5a65"><rect width="26" height="25"/></clipPath></defs><g clip-path="url(#_clipPath_CtaUKk7aBMMzdkLecMrPmInOUbwH5a65)"><path d=" M 17.592 0 L 8.407 0 C 3.771 0 0 3.513 0 7.83 L 0 13.409 C 0 17.059 2.721 20.196 6.46 21.022 L 4.348 25 L 12.246 21.239 L 17.593 21.239 C 22.229 21.239 26 17.726 26 13.409 L 26 7.83 C 26 3.513 22.229 0 17.592 0 Z  M 24.703 13.409 C 24.703 17.06 21.513 20.031 17.593 20.031 L 11.933 20.031 L 7.249 22.262 L 8.408 20.079 L 7.504 19.972 C 3.965 19.553 1.297 16.732 1.297 13.409 L 1.297 7.83 C 1.297 4.179 4.486 1.208 8.407 1.208 L 17.592 1.208 C 21.512 1.208 24.702 4.179 24.702 7.83 L 24.702 13.409 L 24.703 13.409 Z " fill="rgb(0,150,57)"/><rect x="5.547" y="5.547" width="14.811" height="1.208" transform="matrix(1,0,0,1,0,0)" fill="rgb(0,150,57)"/><rect x="5.547" y="10.078" width="14.811" height="1.208" transform="matrix(1,0,0,1,0,0)" fill="rgb(0,150,57)"/><rect x="5.547" y="14.609" width="14.811" height="1.208" transform="matrix(1,0,0,1,0,0)" fill="rgb(0,150,57)"/></g></svg>