<?xml version="1.0" standalone="no"?><!-- Generator: Gravit.io --><svg xmlns="http://www.w3.org/2000/svg" xmlns:xlink="http://www.w3.org/1999/xlink" style="isolation:isolate" viewBox="0 0 70 70" width="70" height="70"><defs><clipPath id="_clipPath_azeaFvpRR2ZPBtI2paBzOSAaiz0tVhJB"><rect width="70" height="70"/></clipPath></defs><g clip-path="url(#_clipPath_azeaFvpRR2ZPBtI2paBzOSAaiz0tVhJB)"><g><path d=" M 53.107 63.125 L 16.893 63.125 C 15.229 63.125 13.875 61.783 13.875 60.133 L 13.875 15.851 C 13.875 14.201 15.229 12.859 16.893 12.859 L 25.342 12.859 L 25.342 14.056 L 16.893 14.056 C 15.894 14.056 15.082 14.861 15.082 15.851 L 15.082 60.133 C 15.082 61.123 15.894 61.928 16.893 61.928 L 53.107 61.928 C 54.106 61.928 54.918 61.123 54.918 60.133 L 54.918 15.851 C 54.918 14.861 54.106 14.056 53.107 14.056 L 44.632 14.056 L 44.632 12.859 L 53.107 12.859 C 54.771 12.859 56.125 14.201 56.125 15.851 L 56.125 60.133 C 56.125 61.783 54.771 63.125 53.107 63.125 Z " fill="rgb(0,150,57)"/></g><g><path d=" M 21.684 31.023 L 18.88 28.242 L 19.734 27.396 L 21.759 29.403 L 28.578 23.769 L 29.351 24.688 L 21.684 31.023 Z " fill="rgb(0,150,57)"/></g><g><path d=" M 21.684 42.991 L 18.88 40.21 L 19.734 39.364 L 21.759 41.371 L 28.578 35.737 L 29.351 36.656 L 21.684 42.991 Z " fill="rgb(0,150,57)"/></g><g><path d=" M 21.684 54.959 L 18.88 52.178 L 19.734 51.332 L 21.759 53.339 L 28.578 47.706 L 29.351 48.624 L 21.684 54.959 Z " fill="rgb(0,150,57)"/></g><g><rect x="35" y="24.827" width="15.693" height="1.197" transform="matrix(1,0,0,1,0,0)" fill="rgb(0,150,57)"/></g><g><rect x="35" y="36.795" width="15.693" height="1.197" transform="matrix(1,0,0,1,0,0)" fill="rgb(0,150,57)"/></g><g><rect x="35" y="48.763" width="15.693" height="1.197" transform="matrix(1,0,0,1,0,0)" fill="rgb(0,150,57)"/></g><g><rect x="35" y="29.614" width="15.693" height="1.197" transform="matrix(1,0,0,1,0,0)" fill="rgb(0,150,57)"/></g><g><rect x="35" y="41.582" width="15.693" height="1.197" transform="matrix(1,0,0,1,0,0)" fill="rgb(0,150,57)"/></g><g><rect x="35" y="53.551" width="15.693" height="1.197" transform="matrix(1,0,0,1,0,0)" fill="rgb(0,150,57)"/></g><g><path d=" M 45.261 17.646 L 24.739 17.646 L 24.739 12.261 C 24.739 10.61 26.093 9.269 27.757 9.269 L 31.182 9.269 C 31.64 9.269 32.065 8.979 32.319 8.491 C 32.842 7.494 33.868 6.875 35 6.875 C 36.132 6.875 37.158 7.494 37.681 8.491 C 37.935 8.979 38.36 9.269 38.818 9.269 L 42.243 9.269 C 43.907 9.269 45.261 10.61 45.261 12.261 L 45.261 17.646 Z  M 25.946 16.449 L 44.054 16.449 L 44.054 12.261 C 44.054 11.271 43.241 10.465 42.243 10.465 L 38.818 10.465 C 37.901 10.465 37.075 9.934 36.609 9.043 C 36.296 8.443 35.679 8.072 35 8.072 C 34.321 8.072 33.704 8.443 33.391 9.043 C 32.925 9.934 32.099 10.465 31.182 10.465 L 27.757 10.465 C 26.759 10.465 25.946 11.271 25.946 12.261 L 25.946 16.449 Z " fill="rgb(0,150,57)"/></g></g></svg>