<?xml version="1.0" standalone="no"?><!-- Generator: Gravit.io --><svg xmlns="http://www.w3.org/2000/svg" xmlns:xlink="http://www.w3.org/1999/xlink" style="isolation:isolate" viewBox="0 0 70 70" width="70" height="70"><defs><clipPath id="_clipPath_7l3G6A9joXCG87VL9oPefBxjDb5TePLz"><rect width="70" height="70"/></clipPath></defs><g clip-path="url(#_clipPath_7l3G6A9joXCG87VL9oPefBxjDb5TePLz)"><path d=" M 61.5 22.194 L 49.432 22.194 L 50.492 19.535 C 50.9 18.488 50.737 17.36 50.166 16.474 L 51.226 13.895 C 51.389 13.493 51.226 13.09 50.818 12.929 L 48.862 12.123 C 48.698 12.042 48.454 12.042 48.291 12.123 C 48.128 12.203 47.965 12.365 47.883 12.526 L 46.742 15.184 C 45.682 15.426 44.785 16.151 44.377 17.199 L 43.806 18.568 L 40.952 17.44 L 38.995 22.355 L 8.5 22.355 L 8.5 51.923 L 31.412 51.923 C 31.412 52.246 31.412 52.568 31.412 52.89 C 31.412 53.535 31.738 54.099 32.228 54.501 L 31.168 57.08 C 31.005 57.402 31.168 57.724 31.494 57.885 C 31.902 58.046 32.228 57.805 32.309 57.563 L 33.369 54.985 C 34.022 55.065 34.674 54.824 35.082 54.421 C 35.815 53.696 36.468 52.89 37.038 52.004 L 61.5 52.004 L 61.5 22.194 Z  M 48.78 13.412 L 50.003 13.895 L 49.269 15.587 C 49.106 15.507 48.862 15.346 48.698 15.265 C 48.454 15.184 48.291 15.184 48.046 15.104 L 48.78 13.412 Z  M 9.723 50.634 L 9.723 23.402 L 38.506 23.402 L 35.897 29.848 L 37.038 30.331 L 41.686 18.891 L 43.398 19.535 L 32.635 45.961 C 32.065 47.492 31.657 49.023 31.494 50.634 L 9.723 50.634 Z  M 34.103 53.374 C 33.858 53.615 33.451 53.696 33.125 53.535 C 32.798 53.374 32.554 53.051 32.554 52.729 C 32.554 50.554 32.962 48.378 33.777 46.364 L 45.437 17.602 C 45.763 16.796 46.823 15.91 48.209 16.474 C 49.269 16.876 49.84 18.085 49.351 19.213 L 37.691 47.976 C 36.875 49.99 35.652 51.843 34.103 53.374 Z  M 60.277 50.634 L 37.772 50.634 C 38.18 49.909 38.588 49.184 38.914 48.459 L 49.025 23.483 L 60.358 23.483 L 60.358 50.634 L 60.277 50.634 Z " fill="rgb(0,150,57)"/><rect x="41.185" y="29.935" width="2.686" height="1.211" transform="matrix(0.93,0.368,-0.376,0.927,14.461,-13.416)" fill="rgb(0,150,57)"/><rect x="42.165" y="27.518" width="2.686" height="1.211" transform="matrix(0.93,0.368,-0.376,0.927,13.622,-13.954)" fill="rgb(0,150,57)"/><rect x="12.414" y="27.995" width="20.955" height="1.209" transform="matrix(1,0,0,1,0,0)" fill="rgb(0,150,57)"/><rect x="12.414" y="32.345" width="16.308" height="1.209" transform="matrix(1,0,0,1,0,0)" fill="rgb(0,150,57)"/><rect x="44.132" y="41.369" width="13.291" height="1.209" transform="matrix(1,0,0,1,0,0)" fill="rgb(0,150,57)"/><rect x="47.068" y="37.663" width="10.355" height="1.209" transform="matrix(1,0,0,1,0,0)" fill="rgb(0,150,57)"/><rect x="22.932" y="45.8" width="1.223" height="1.209" transform="matrix(1,0,0,1,0,0)" fill="rgb(0,150,57)"/><rect x="25.542" y="45.8" width="1.223" height="1.209" transform="matrix(1,0,0,1,0,0)" fill="rgb(0,150,57)"/><rect x="12.577" y="45.8" width="1.223" height="1.209" transform="matrix(1,0,0,1,0,0)" fill="rgb(0,150,57)"/><rect x="17.714" y="45.8" width="1.223" height="1.209" transform="matrix(1,0,0,1,0,0)" fill="rgb(0,150,57)"/><rect x="15.186" y="45.8" width="1.223" height="1.209" transform="matrix(1,0,0,1,0,0)" fill="rgb(0,150,57)"/><rect x="20.323" y="45.8" width="1.223" height="1.209" transform="matrix(1,0,0,1,0,0)" fill="rgb(0,150,57)"/><rect x="28.069" y="45.8" width="1.223" height="1.209" transform="matrix(1,0,0,1,0,0)" fill="rgb(0,150,57)"/><rect x="48.454" y="45.8" width="1.223" height="1.209" transform="matrix(1,0,0,1,0,0)" fill="rgb(0,150,57)"/><rect x="45.845" y="45.8" width="1.223" height="1.209" transform="matrix(1,0,0,1,0,0)" fill="rgb(0,150,57)"/><rect x="43.317" y="45.8" width="1.223" height="1.209" transform="matrix(1,0,0,1,0,0)" fill="rgb(0,150,57)"/><rect x="56.2" y="45.8" width="1.223" height="1.209" transform="matrix(1,0,0,1,0,0)" fill="rgb(0,150,57)"/><rect x="53.672" y="45.8" width="1.223" height="1.209" transform="matrix(1,0,0,1,0,0)" fill="rgb(0,150,57)"/><rect x="41.768" y="45.8" width="0.163" height="1.209" transform="matrix(1,0,0,1,0,0)" fill="rgb(0,150,57)"/><rect x="51.063" y="45.8" width="1.223" height="1.209" transform="matrix(1,0,0,1,0,0)" fill="rgb(0,150,57)"/></g></svg>