<?xml version="1.0" standalone="no"?><!-- Generator: Gravit.io --><svg xmlns="http://www.w3.org/2000/svg" xmlns:xlink="http://www.w3.org/1999/xlink" style="isolation:isolate" viewBox="0 0 70 70" width="70" height="70"><defs><clipPath id="_clipPath_JB3RXVcWL7zGKe5XYwWlWQsigCyJF4Af"><rect width="70" height="70"/></clipPath></defs><g clip-path="url(#_clipPath_JB3RXVcWL7zGKe5XYwWlWQsigCyJF4Af)"><path d=" M 56.85 14.354 L 50.095 7.5 L 16.903 7.5 L 16.903 12.746 L 13.15 12.746 L 13.15 62.5 L 51.513 62.5 L 51.513 58.862 L 56.85 58.862 L 56.85 14.354 Z  M 50.428 9.615 L 54.682 13.931 L 50.428 13.931 L 50.428 9.615 Z  M 50.262 61.231 L 14.401 61.231 L 14.401 14.015 L 16.903 14.015 L 16.903 58.862 L 50.262 58.862 L 50.262 61.231 Z  M 18.154 57.592 L 18.154 8.769 L 49.261 8.769 L 49.261 15.2 L 55.599 15.2 L 55.599 57.508 L 18.154 57.508 L 18.154 57.592 Z " fill="rgb(0,150,57)"/><rect x="21.49" y="41.854" width="19.765" height="1.269" transform="matrix(1,0,0,1,0,0)" fill="rgb(0,150,57)"/><rect x="43.673" y="41.854" width="8.256" height="1.269" transform="matrix(1,0,0,1,0,0)" fill="rgb(0,150,57)"/><rect x="21.49" y="35.762" width="19.765" height="1.269" transform="matrix(1,0,0,1,0,0)" fill="rgb(0,150,57)"/><rect x="43.673" y="35.762" width="8.256" height="1.269" transform="matrix(1,0,0,1,0,0)" fill="rgb(0,150,57)"/><rect x="33.832" y="21.715" width="11.092" height="1.269" transform="matrix(1,0,0,1,0,0)" fill="rgb(0,150,57)"/><rect x="33.832" y="26.454" width="18.014" height="1.269" transform="matrix(1,0,0,1,0,0)" fill="rgb(0,150,57)"/><rect x="21.49" y="47.946" width="19.765" height="1.269" transform="matrix(1,0,0,1,0,0)" fill="rgb(0,150,57)"/><rect x="50.512" y="47.946" width="1.334" height="1.269" transform="matrix(1,0,0,1,0,0)" fill="rgb(0,150,57)"/><rect x="47.093" y="47.946" width="1.334" height="1.269" transform="matrix(1,0,0,1,0,0)" fill="rgb(0,150,57)"/><rect x="43.673" y="47.946" width="1.334" height="1.269" transform="matrix(1,0,0,1,0,0)" fill="rgb(0,150,57)"/><path d=" M 23.908 26.792 C 23.408 26.369 23.158 25.862 23.158 25.269 L 21.907 25.269 C 21.907 26.2 22.324 27.131 23.074 27.808 C 23.658 28.315 24.409 28.654 25.159 28.738 L 25.159 31.192 L 26.41 31.192 L 26.41 28.654 C 27.161 28.569 27.911 28.231 28.495 27.723 C 29.246 27.046 29.663 26.2 29.663 25.185 C 29.663 24.254 29.246 23.323 28.495 22.646 C 27.744 21.969 26.827 21.631 25.743 21.631 C 24.992 21.631 24.325 21.377 23.825 20.954 C 23.324 20.531 23.074 20.023 23.074 19.431 C 23.074 18.838 23.324 18.331 23.825 17.908 C 24.826 17.062 26.66 17.062 27.661 17.908 C 28.161 18.331 28.412 18.838 28.412 19.431 L 29.663 19.431 C 29.663 18.5 29.246 17.569 28.495 16.892 C 27.911 16.385 27.161 16.046 26.41 15.962 L 26.41 13.677 L 25.159 13.677 L 25.159 16.131 C 24.409 16.215 23.658 16.554 23.074 17.062 C 22.324 17.738 21.907 18.585 21.907 19.6 C 21.907 20.531 22.324 21.462 23.074 22.138 C 23.825 22.815 24.742 23.154 25.826 23.154 C 26.577 23.154 27.244 23.408 27.744 23.831 C 28.245 24.254 28.495 24.762 28.495 25.354 C 28.495 25.946 28.245 26.454 27.744 26.877 C 26.66 27.638 24.909 27.638 23.908 26.792 Z " fill="rgb(0,150,57)"/></g></svg>