<?xml version="1.0" encoding="utf-8"?>
<!-- Generator: Adobe Illustrator 26.0.1, SVG Export Plug-In . SVG Version: 6.00 Build 0)  -->
<svg version="1.1" id="Capa_1" xmlns="http://www.w3.org/2000/svg" xmlns:xlink="http://www.w3.org/1999/xlink" x="0px" y="0px"
	 width="70px" height="70px" viewBox="0 0 70 70" style="enable-background:new 0 0 70 70;" xml:space="preserve">
<style type="text/css">
	.st0{fill:#009639;}
</style>
<g>
	<path class="st0" d="M37.8,47.8h13.2v-8.9H37.8V47.8z M38.9,40.1h10.7v6.4H38.9V40.1z"/>
	<rect x="27.3" y="46.5" class="st0" width="1.3" height="1.3"/>
	<path class="st0" d="M62.2,25.1L62.2,25.1L62.2,25.1L56,15.2H14l-6,9.6l-0.3,0.3v0.1l0,0c0,3.1,2.3,5.6,5.4,6V57H57V31.1
		C59.9,30.8,62.2,28.2,62.2,25.1z M60.4,24.6h-9.1l-3.1-8h7L60.4,24.6z M40.9,24.6l-1-8H47l3.1,8H40.9z M39.6,24.6h-9.2l1-8h7.1
		L39.6,24.6z M29.1,24.6H20l3.1-8h7.1L29.1,24.6z M29,25.8c-0.3,2.3-2.3,4-4.6,4s-4.4-1.8-4.6-4H29z M39.6,25.8
		c-0.3,2.3-2.3,4-4.6,4s-4.4-1.8-4.6-4H39.6z M50.3,25.8c-0.3,2.3-2.3,4-4.6,4s-4.4-1.8-4.6-4H50.3z M14.7,16.5h7l-3,8H9.6
		L14.7,16.5z M9,25.8h9.3c-0.3,2.3-2.3,4-4.6,4C11.4,29.8,9.3,28.1,9,25.8z M19,55.6V38.1h10.6v17.4H19z M30.9,55.6V36.9H17.7v18.7
		h-3.4V31.1c2.1-0.3,3.8-1.5,4.7-3.3c1,1.9,3,3.4,5.4,3.4s4.4-1.3,5.4-3.4c1,1.9,3,3.4,5.4,3.4s4.4-1.3,5.4-3.4c1,1.9,3,3.4,5.4,3.4
		s4.4-1.3,5.4-3.4c0.9,1.8,2.6,3.1,4.7,3.3v24.6L30.9,55.6L30.9,55.6z M56.3,29.8c-2.3,0-4.4-1.8-4.6-4H61
		C60.7,28.1,58.6,29.8,56.3,29.8z"/>
	<g>
		<g>
			<path class="st0" d="M62.2,25.1L62.2,25.1L62.2,25.1L56,15.2H14l-6,9.6l-0.3,0.3v0.1l0,0c0,3.1,2.3,5.6,5.4,6V57H57V31.1
				C59.9,30.8,62.2,28.2,62.2,25.1z M60.4,24.6h-9.1l-3.1-8h7L60.4,24.6z M40.9,24.6l-1-8H47l3.1,8H40.9z M39.6,24.6h-9.2l1-8h7.1
				L39.6,24.6z M29.1,24.6H20l3.1-8h7.1L29.1,24.6z M29,25.8c-0.3,2.3-2.3,4-4.6,4s-4.4-1.8-4.6-4H29z M39.6,25.8
				c-0.3,2.3-2.3,4-4.6,4s-4.4-1.8-4.6-4H39.6z M50.3,25.8c-0.3,2.3-2.3,4-4.6,4s-4.4-1.8-4.6-4H50.3z M14.7,16.5h7l-3,8H9.6
				L14.7,16.5z M9,25.8h9.3c-0.3,2.3-2.3,4-4.6,4C11.4,29.8,9.3,28.1,9,25.8z M19,55.6V38.1h10.6v17.4H19z M30.9,55.6V36.9H17.7
				v18.7h-3.4V31.1c2.1-0.3,3.8-1.5,4.7-3.3c1,1.9,3,3.4,5.4,3.4s4.4-1.3,5.4-3.4c1,1.9,3,3.4,5.4,3.4s4.4-1.3,5.4-3.4
				c1,1.9,3,3.4,5.4,3.4s4.4-1.3,5.4-3.4c0.9,1.8,2.6,3.1,4.7,3.3v24.6L30.9,55.6L30.9,55.6z M56.3,29.8c-2.3,0-4.4-1.8-4.6-4H61
				C60.7,28.1,58.6,29.8,56.3,29.8z"/>
		</g>
	</g>
</g>
</svg>
