<?xml version="1.0" standalone="no"?><!-- Generator: Gravit.io --><svg xmlns="http://www.w3.org/2000/svg" xmlns:xlink="http://www.w3.org/1999/xlink" style="isolation:isolate" viewBox="0 0 70 70" width="70" height="70"><defs><clipPath id="_clipPath_gyOmzHnaUjLof9KYg7VZPsVNYxIZL3vI"><rect width="70" height="70"/></clipPath></defs><g clip-path="url(#_clipPath_gyOmzHnaUjLof9KYg7VZPsVNYxIZL3vI)"><rect x="30.723" y="49.011" width="1.225" height="1.265" transform="matrix(1,0,0,1,0,0)" fill="rgb(0,150,57)"/><rect x="33.5" y="49.011" width="1.225" height="1.265" transform="matrix(1,0,0,1,0,0)" fill="rgb(0,150,57)"/><rect x="27.865" y="49.011" width="1.225" height="1.265" transform="matrix(1,0,0,1,0,0)" fill="rgb(0,150,57)"/><rect x="22.148" y="49.011" width="1.225" height="1.265" transform="matrix(1,0,0,1,0,0)" fill="rgb(0,150,57)"/><rect x="25.007" y="49.011" width="1.225" height="1.265" transform="matrix(1,0,0,1,0,0)" fill="rgb(0,150,57)"/><rect x="39.216" y="49.011" width="1.225" height="1.265" transform="matrix(1,0,0,1,0,0)" fill="rgb(0,150,57)"/><rect x="53.345" y="49.011" width="1.225" height="1.265" transform="matrix(1,0,0,1,0,0)" fill="rgb(0,150,57)"/><rect x="47.71" y="49.011" width="1.225" height="1.265" transform="matrix(1,0,0,1,0,0)" fill="rgb(0,150,57)"/><rect x="50.568" y="49.011" width="1.225" height="1.265" transform="matrix(1,0,0,1,0,0)" fill="rgb(0,150,57)"/><rect x="56.203" y="49.011" width="1.225" height="1.265" transform="matrix(1,0,0,1,0,0)" fill="rgb(0,150,57)"/><rect x="42.075" y="49.011" width="1.225" height="1.265" transform="matrix(1,0,0,1,0,0)" fill="rgb(0,150,57)"/><rect x="36.358" y="49.011" width="1.225" height="1.265" transform="matrix(1,0,0,1,0,0)" fill="rgb(0,150,57)"/><rect x="44.851" y="49.011" width="1.225" height="1.265" transform="matrix(1,0,0,1,0,0)" fill="rgb(0,150,57)"/><path d=" M 34.316 34.001 L 23.128 34.001 L 23.128 41.338 L 34.316 41.338 L 34.316 34.001 Z  M 33.091 40.073 L 24.353 40.073 L 24.353 35.266 L 33.091 35.266 L 33.091 40.073 Z " fill="rgb(0,150,57)"/><path d=" M 59.388 29.026 L 54.814 29.026 L 48.526 14.86 C 48.036 13.68 46.648 13.174 45.505 13.68 L 9.817 30.544 C 8.673 31.05 8.183 32.484 8.673 33.664 L 17.82 54.323 C 17.902 55.504 18.882 56.516 20.025 56.516 L 59.306 56.516 C 60.531 56.516 61.511 55.504 61.511 54.239 L 61.511 31.303 C 61.593 30.038 60.613 29.026 59.388 29.026 Z  M 53.426 29.026 L 33.336 29.026 L 49.996 21.269 L 53.426 29.026 Z  M 10.307 31.725 L 46.076 14.86 C 46.566 14.607 47.22 14.86 47.465 15.366 L 49.506 20.004 L 30.396 29.026 L 20.025 29.026 C 18.8 29.026 17.82 30.038 17.82 31.303 L 17.82 34.929 L 11.858 37.712 L 9.817 33.158 C 9.572 32.568 9.817 31.978 10.307 31.725 Z  M 17.82 51.288 L 12.348 38.808 L 17.82 36.278 L 17.82 51.288 Z  M 60.368 54.155 C 60.368 54.745 59.878 55.167 59.388 55.167 L 20.025 55.167 C 19.453 55.167 19.045 54.661 19.045 54.155 L 19.045 31.303 C 19.045 30.713 19.535 30.291 20.025 30.291 L 59.306 30.291 C 59.878 30.291 60.286 30.797 60.286 31.303 L 60.286 54.155 L 60.368 54.155 Z " fill="rgb(0,150,57)"/><rect x="41.176" y="40.073" width="15.843" height="1.265" transform="matrix(1,0,0,1,0,0)" fill="rgb(0,150,57)"/><rect x="46.403" y="35.688" width="10.617" height="1.265" transform="matrix(1,0,0,1,0,0)" fill="rgb(0,150,57)"/></g></svg>