<?xml version="1.0" standalone="no"?><!-- Generator: Gravit.io --><svg xmlns="http://www.w3.org/2000/svg" xmlns:xlink="http://www.w3.org/1999/xlink" style="isolation:isolate" viewBox="0 0 70 70" width="70" height="70"><defs><clipPath id="_clipPath_jwL7HTnkIcCIwfKycxzuSVNrQ4SsvrIG"><rect width="70" height="70"/></clipPath></defs><g clip-path="url(#_clipPath_jwL7HTnkIcCIwfKycxzuSVNrQ4SsvrIG)"><path d=" M 22.28 42.501 C 23.32 42.501 24.28 42.731 25.24 43.268 L 25.8 42.27 C 24.68 41.656 23.48 41.349 22.28 41.349 C 18.92 41.349 16.12 43.499 15.24 46.415 L 12.6 46.415 L 12.6 47.567 L 15 47.567 C 15 47.797 14.92 48.104 14.92 48.334 C 14.92 48.565 14.92 48.872 15 49.102 L 12.6 49.102 L 12.6 50.253 L 15.24 50.253 C 16.12 53.17 18.92 55.319 22.28 55.319 C 23.48 55.319 24.68 55.012 25.8 54.398 L 25.24 53.4 C 24.28 53.938 23.32 54.168 22.28 54.168 C 19.64 54.168 17.32 52.556 16.52 50.253 L 22.92 50.253 L 22.92 49.102 L 16.2 49.102 C 16.2 48.872 16.12 48.565 16.12 48.334 C 16.12 48.104 16.12 47.797 16.2 47.567 L 22.84 47.567 L 22.84 46.415 L 16.44 46.415 C 17.32 44.189 19.56 42.501 22.28 42.501 Z " fill="rgb(0,150,57)"/><path d=" M 48.68 42.808 C 50.36 42.808 51.72 44.113 51.72 45.725 L 52.92 45.725 C 52.92 43.499 51 41.656 48.68 41.656 C 46.36 41.656 44.44 43.499 44.44 45.725 C 44.44 46.722 44.84 47.643 45.16 48.565 C 45.24 48.718 45.32 48.872 45.32 49.102 L 43.64 49.102 L 43.64 50.253 L 45.64 50.253 C 45.64 50.33 45.64 50.483 45.64 50.56 C 45.64 52.326 44.84 54.014 43.48 55.242 C 43.48 55.242 43.48 55.242 43.48 55.242 L 44.28 56.087 C 44.36 56.01 45.88 54.705 48.68 55.396 C 48.76 55.396 51 56.163 52.6 55.396 L 52.04 54.398 C 51.08 54.859 49.64 54.552 49.08 54.321 C 47.8 54.014 46.76 54.091 45.88 54.245 C 46.52 53.17 46.84 51.865 46.84 50.637 C 46.84 50.56 46.84 50.407 46.84 50.33 L 51.08 50.33 L 51.08 49.179 L 46.6 49.179 C 46.52 48.872 46.36 48.565 46.28 48.258 C 45.96 47.49 45.64 46.646 45.64 45.878 C 45.56 44.189 47 42.808 48.68 42.808 Z " fill="rgb(0,150,57)"/><path d=" M 46.52 27.61 C 46.04 27.226 45.8 26.689 45.8 26.151 L 44.6 26.151 C 44.6 27.073 45 27.917 45.8 28.531 C 46.36 28.991 47.08 29.298 47.88 29.452 L 47.88 31.755 L 49 31.755 L 49 29.452 C 49.8 29.375 50.52 29.068 51.08 28.531 C 51.8 27.917 52.28 27.073 52.28 26.151 C 52.28 25.23 51.88 24.386 51.08 23.772 C 50.36 23.158 49.4 22.851 48.36 22.851 C 47.64 22.851 46.92 22.621 46.44 22.16 C 45.96 21.776 45.72 21.239 45.72 20.702 C 45.72 20.164 45.96 19.627 46.44 19.243 C 47.48 18.399 49.24 18.399 50.28 19.243 C 50.76 19.627 51 20.164 51 20.702 L 52.2 20.702 C 52.2 19.781 51.8 18.936 51 18.322 C 50.52 17.862 49.8 17.555 49 17.478 L 49 15.175 L 47.8 15.175 L 47.8 17.478 C 47 17.555 46.28 17.862 45.72 18.399 C 45 19.013 44.52 19.857 44.52 20.778 C 44.52 21.7 44.92 22.544 45.72 23.158 C 46.44 23.772 47.4 24.079 48.44 24.079 C 49.16 24.079 49.88 24.309 50.36 24.77 C 50.84 25.154 51.08 25.691 51.08 26.228 C 51.08 26.765 50.84 27.303 50.36 27.687 C 49.32 28.454 47.48 28.454 46.52 27.61 Z " fill="rgb(0,150,57)"/><path d=" M 48.44 35.516 C 55.4 35.516 61 30.066 61 23.388 C 61 16.71 55.4 11.337 48.44 11.337 C 41.48 11.337 35.88 16.787 35.88 23.388 C 35.8 30.066 41.48 35.516 48.44 35.516 Z  M 48.44 12.489 C 54.76 12.489 59.8 17.401 59.8 23.388 C 59.8 29.452 54.68 34.288 48.44 34.288 C 42.12 34.288 37.08 29.375 37.08 23.388 C 37 17.401 42.12 12.489 48.44 12.489 Z " fill="rgb(0,150,57)"/><path d=" M 21.56 10.8 C 14.6 10.8 9 16.173 9 22.851 C 9 29.529 14.6 34.902 21.56 34.902 C 28.52 34.902 34.12 29.452 34.12 22.851 C 34.12 16.25 28.52 10.8 21.56 10.8 Z  M 21.56 33.75 C 15.24 33.75 10.2 28.838 10.2 22.851 C 10.2 16.787 15.32 11.951 21.56 11.951 C 27.88 11.951 33 16.787 33 22.851 C 33 28.915 27.88 33.75 21.56 33.75 Z " fill="rgb(0,150,57)"/><path d=" M 25.48 16.327 L 21.56 22.314 L 17.72 16.327 L 16.68 16.941 L 20.52 22.851 L 17.08 22.851 L 17.08 24.002 L 21 24.002 L 21 26.228 L 17.08 26.228 L 17.08 27.38 L 21 27.38 L 21 30.296 L 22.2 30.296 L 22.2 27.38 L 26.12 27.38 L 26.12 26.228 L 22.2 26.228 L 22.2 24.002 L 26.12 24.002 L 26.12 22.851 L 22.68 22.851 L 26.52 16.941 L 25.48 16.327 Z " fill="rgb(0,150,57)"/><path d=" M 48.44 36.897 C 41.48 36.897 35.88 42.347 35.88 48.948 C 35.88 55.626 41.56 60.999 48.44 60.999 C 55.4 61.076 61 55.626 61 48.948 C 61 42.27 55.4 36.897 48.44 36.897 Z  M 48.44 59.925 C 42.12 59.925 37.08 55.012 37.08 49.025 C 37.08 42.961 42.2 38.126 48.44 38.126 C 54.76 38.126 59.8 43.038 59.8 49.025 C 59.8 55.012 54.68 59.925 48.44 59.925 Z " fill="rgb(0,150,57)"/><path d=" M 21.56 36.283 C 14.6 36.283 9 41.733 9 48.411 C 9 55.089 14.6 60.462 21.56 60.462 C 28.52 60.462 34.12 55.012 34.12 48.411 C 34.2 41.733 28.52 36.283 21.56 36.283 Z  M 21.56 59.311 C 15.32 59.311 10.2 54.398 10.2 48.411 C 10.2 42.347 15.32 37.511 21.56 37.511 C 27.88 37.511 32.92 42.424 32.92 48.411 C 33 54.398 27.88 59.311 21.56 59.311 Z " fill="rgb(0,150,57)"/></g></svg>