<?xml version="1.0" standalone="no"?><!-- Generator: Gravit.io --><svg xmlns="http://www.w3.org/2000/svg" xmlns:xlink="http://www.w3.org/1999/xlink" style="isolation:isolate" viewBox="0 0 75 75" width="75" height="75"><defs><clipPath id="_clipPath_QBam59Aaqvzv6x4woYE8eSG3McGb0xqm"><rect width="75" height="75"/></clipPath></defs><g clip-path="url(#_clipPath_QBam59Aaqvzv6x4woYE8eSG3McGb0xqm)"><path d=" M 26.794 43.608 L 26.794 42.285 C 27.262 42.164 27.73 41.924 28.081 41.683 C 28.666 41.082 29.017 40.36 29.017 39.639 C 29.017 38.797 28.666 38.075 28.081 37.594 C 27.496 37.113 26.794 36.752 25.975 36.752 C 25.624 36.752 25.273 36.632 25.039 36.391 C 24.922 36.271 24.688 36.03 24.688 35.669 C 24.688 35.309 24.922 35.068 25.039 34.948 C 25.507 34.467 26.443 34.467 27.028 34.948 C 27.145 35.068 27.379 35.309 27.379 35.669 L 29.134 35.669 C 29.134 34.828 28.783 34.106 28.198 33.625 C 27.847 33.264 27.379 33.144 26.911 33.023 L 26.911 31.7 L 25.156 31.7 L 25.156 33.023 C 24.688 33.144 24.22 33.384 23.869 33.625 C 23.167 34.106 22.816 34.828 22.816 35.669 C 22.816 36.511 23.167 37.233 23.752 37.714 C 24.337 38.195 25.039 38.556 25.858 38.556 C 26.209 38.556 26.56 38.676 26.794 38.917 C 26.911 39.037 27.145 39.278 27.145 39.639 C 27.145 39.999 26.911 40.24 26.794 40.36 C 26.326 40.841 25.39 40.841 24.805 40.36 C 24.688 40.24 24.454 39.999 24.454 39.639 L 22.816 39.639 C 22.816 40.481 23.167 41.202 23.752 41.683 C 24.103 42.044 24.571 42.164 25.039 42.285 L 25.039 43.608 L 26.794 43.608 Z " fill="rgb(0,150,57)"/><path d=" M 35.218 37.594 C 35.218 32.302 31.006 27.972 25.858 27.972 C 20.71 27.972 16.498 32.302 16.498 37.594 C 16.498 42.886 20.71 47.216 25.858 47.216 C 31.123 47.216 35.218 42.886 35.218 37.594 Z  M 18.37 37.594 C 18.37 33.264 21.763 29.776 25.975 29.776 C 30.187 29.776 33.58 33.264 33.58 37.594 C 33.58 41.924 30.187 45.412 25.975 45.412 C 21.763 45.412 18.37 41.924 18.37 37.594 Z " fill="rgb(0,150,57)"/><path d=" M 64.47 25.326 C 60.608 27.851 58.268 26.889 58.151 26.889 L 58.034 26.769 L 52.535 26.769 L 52.301 26.889 C 49.142 28.814 45.749 29.175 45.749 29.175 C 41.42 29.535 40.718 32.061 40.601 32.783 C 39.782 34.948 38.963 35.309 38.612 35.309 C 38.027 35.188 37.676 34.828 37.559 34.467 C 37.09 33.384 37.676 31.46 37.91 30.858 C 39.314 26.528 39.431 26.528 42.824 24.243 L 43.292 23.882 C 46.919 21.477 46.217 17.387 45.398 15.704 C 44.579 13.659 43.409 12.456 42.122 12.095 C 40.367 11.614 38.846 12.697 38.846 12.697 C 34.75 15.343 30.538 14.741 30.538 14.741 L 29.953 14.621 L 29.836 15.222 C 29.368 16.185 27.613 19.192 25.858 19.552 L 25.273 19.673 L 25.156 20.274 C 24.922 21.357 24.103 24.363 22.582 25.326 C 22.114 25.687 21.529 25.687 20.944 25.566 L 20.827 25.566 C 20.827 25.566 20.593 25.566 20.476 25.205 C 20.359 25.085 20.125 24.243 21.178 22.439 L 21.178 22.319 C 21.178 22.198 24.337 13.779 28.315 11.374 C 29.485 10.892 39.431 6.442 41.303 3.916 C 41.303 3.916 41.771 3.074 43.409 3.315 L 43.877 3.315 L 44.111 2.714 C 44.111 2.593 44.696 1.391 46.802 1.872 C 48.089 2.473 63.651 8.848 74.766 10.171 L 75 8.367 C 63.885 7.164 47.621 0.308 47.504 0.188 L 47.387 0.188 C 45.047 -0.414 43.643 0.549 42.941 1.391 C 40.835 1.391 39.899 2.593 39.665 2.954 C 38.495 4.518 31.591 8.006 27.496 9.81 C 23.05 12.456 19.891 20.875 19.54 21.717 C 18.604 23.522 18.37 25.085 18.955 26.168 C 19.423 27.13 20.359 27.37 20.593 27.37 C 21.646 27.611 22.699 27.491 23.635 26.889 C 25.624 25.566 26.677 22.439 26.911 21.116 C 29.017 20.274 30.655 17.748 31.24 16.545 C 32.761 16.666 36.388 16.545 40.133 14.14 C 40.133 14.14 40.952 13.539 41.888 13.779 C 42.707 14.02 43.409 14.862 43.994 16.425 C 44.111 16.545 45.749 20.154 42.473 22.319 L 42.005 22.68 C 38.378 25.085 37.91 25.566 36.388 30.137 C 36.271 30.498 35.101 33.144 36.037 35.188 C 36.388 36.151 37.207 36.752 38.144 36.993 C 38.261 36.993 38.495 37.113 38.846 37.113 C 39.08 37.113 39.431 37.113 39.782 36.872 C 40.835 36.391 41.771 35.188 42.473 33.264 L 42.473 33.023 C 42.473 32.903 42.707 31.099 46.1 30.858 C 46.217 30.858 49.727 30.498 53.12 28.453 L 57.8 28.453 C 58.502 28.693 61.427 29.295 65.64 26.649 L 65.757 26.528 C 65.757 26.528 68.097 24.363 74.415 25.927 L 74.883 24.123 C 67.98 22.559 65.055 24.845 64.47 25.326 Z " fill="rgb(0,150,57)"/><path d=" M 58.151 55.515 C 57.215 55.154 56.279 55.154 55.343 55.515 L 42.824 61.168 C 42.824 61.048 42.824 60.928 42.824 60.807 C 42.824 58.883 41.303 57.319 39.431 57.319 L 39.431 57.319 L 39.431 57.319 C 39.431 57.319 39.431 57.319 39.314 57.319 L 39.314 57.319 L 30.538 57.319 L 23.986 54.192 C 22.582 53.47 20.944 53.11 19.423 53.11 L 14.392 53.11 L 14.392 50.704 L 0 50.704 L 0 52.508 L 12.754 52.508 L 12.754 70.911 L 2.574 70.911 L 2.574 72.715 L 14.509 72.715 L 14.509 70.309 L 18.136 70.309 L 30.421 74.519 C 31.24 74.759 32.176 75 32.995 75 C 34.282 75 35.569 74.639 36.739 74.038 L 58.151 62.491 C 59.087 62.13 59.789 61.409 60.14 60.447 C 60.491 59.484 60.491 58.522 60.14 57.56 C 59.789 56.598 59.087 55.876 58.151 55.515 Z  M 58.502 59.725 C 58.268 60.206 57.917 60.567 57.449 60.807 L 36.037 72.354 C 34.516 73.196 32.644 73.316 31.006 72.715 L 18.604 68.505 L 14.509 68.505 L 14.509 54.914 L 19.54 54.914 C 20.827 54.914 22.114 55.154 23.401 55.756 L 30.421 59.123 L 39.665 59.123 C 40.601 59.123 41.303 59.965 41.303 60.807 C 41.303 61.77 40.601 62.491 39.665 62.491 L 28.666 62.491 L 28.549 62.491 C 27.496 62.732 25.507 63.574 25.507 65.739 L 27.262 65.739 C 27.262 64.776 28.432 64.416 28.783 64.295 L 39.548 64.295 L 39.548 64.295 C 40.133 64.295 40.601 64.175 41.069 63.814 L 41.069 63.814 L 56.045 56.958 C 56.513 56.718 56.981 56.718 57.449 56.958 C 57.917 57.199 58.268 57.56 58.502 58.041 C 58.736 58.763 58.736 59.244 58.502 59.725 Z " fill="rgb(0,150,57)"/><rect x="8.658" y="66.821" width="1.755" height="1.804" transform="matrix(1,0,0,1,0,0)" fill="rgb(0,150,57)"/><rect x="5.499" y="66.821" width="1.17" height="1.804" transform="matrix(1,0,0,1,0,0)" fill="rgb(0,150,57)"/></g></svg>