<?xml version="1.0" encoding="utf-8" ?>
<svg xmlns="http://www.w3.org/2000/svg" xmlns:xlink="http://www.w3.org/1999/xlink" width="38" height="38">
	<defs>
		<clipPath id="clip_0">
			<rect x="-181" y="-208" width="1440" height="1237" clip-rule="evenodd"/>
		</clipPath>
	</defs>
	<g clip-path="url(#clip_0)">
		<path fill="rgb(51,51,51)" stroke="none" d="M0 19C0 29.4934 8.50659 38 19 38C29.4934 38 38 29.4934 38 19C38 8.50659 29.4934 0 19 0C8.50659 0 0 8.50659 0 19ZM36.2531 19C36.2531 28.5286 28.5286 36.2531 19 36.2531C9.47136 36.2531 1.74688 28.5286 1.74688 19C1.74688 9.47136 9.47136 1.74688 19 1.74688C28.5286 1.74688 36.2531 9.47136 36.2531 19Z" fill-rule="evenodd"/>
	</g>
	<defs>
		<clipPath id="clip_1">
			<rect x="-181" y="-208" width="1440" height="1237" clip-rule="evenodd"/>
		</clipPath>
	</defs>
	<g clip-path="url(#clip_1)">
		<path fill="rgb(51,51,51)" stroke="none" transform="translate(13.3008 9.5)" d="M3.6328 12.1904C3.4808 12.7984 3.45547 13.4672 3.5568 14.1968L6.6272 14.1968C6.54613 13.5483 6.60187 12.9605 6.7944 12.4336C6.98693 11.9067 7.24027 11.4101 7.5544 10.944C7.86854 10.4779 8.2232 10.032 8.6184 9.6064C9.0136 9.1808 9.38347 8.73494 9.728 8.2688C10.0725 7.80266 10.3613 7.3112 10.5944 6.7944C10.8275 6.2776 10.944 5.69494 10.944 5.0464C10.944 4.21546 10.8072 3.48587 10.5336 2.8576C10.26 2.22933 9.86987 1.7024 9.3632 1.2768C8.85653 0.851198 8.25867 0.532001 7.5696 0.3192C6.88053 0.106399 6.13067 0 5.32 0C4.20533 0 3.20214 0.248264 2.3104 0.7448C1.41866 1.24134 0.648537 1.87466 0 2.6448L1.9456 4.4384C2.39147 3.952 2.86773 3.56693 3.3744 3.2832C3.88107 2.99947 4.44853 2.8576 5.0768 2.8576C5.84694 2.8576 6.44986 3.08053 6.8856 3.5264C7.32134 3.97227 7.5392 4.56 7.5392 5.2896C7.5392 5.75574 7.42773 6.19146 7.2048 6.5968C6.98187 7.00214 6.7032 7.41253 6.3688 7.828C6.0344 8.24347 5.67974 8.66906 5.3048 9.1048C4.92986 9.54054 4.59547 10.0117 4.3016 10.5184C4.00773 11.0251 3.7848 11.5824 3.6328 12.1904ZM3.496 17.024C3.0704 17.4699 2.8576 18.0373 2.8576 18.7264C2.8576 19.4155 3.0704 19.9829 3.496 20.4288C3.9216 20.8747 4.45866 21.0976 5.1072 21.0976C5.75574 21.0976 6.29786 20.8747 6.7336 20.4288C7.16934 19.9829 7.3872 19.4155 7.3872 18.7264C7.3872 18.0373 7.16934 17.4699 6.7336 17.024C6.29786 16.5781 5.75574 16.3552 5.1072 16.3552C4.45866 16.3552 3.9216 16.5781 3.496 17.024Z" fill-rule="evenodd"/>
	</g>
	<defs>
		<clipPath id="clip_2">
			<rect x="-181" y="-208" width="1440" height="1237" clip-rule="evenodd"/>
		</clipPath>
	</defs>
	<g clip-path="url(#clip_2)">
		<path fill="none" stroke="rgb(255,255,255)" stroke-width="0.69999999" stroke-miterlimit="4" transform="translate(13.3008 9.5)" d="M3.6328 12.1904C3.4808 12.7984 3.45547 13.4672 3.5568 14.1968L6.6272 14.1968C6.54613 13.5483 6.60187 12.9605 6.7944 12.4336C6.98693 11.9067 7.24027 11.4101 7.5544 10.944C7.86854 10.4779 8.2232 10.032 8.6184 9.6064C9.0136 9.1808 9.38347 8.73494 9.728 8.2688C10.0725 7.80266 10.3613 7.3112 10.5944 6.7944C10.8275 6.2776 10.944 5.69494 10.944 5.0464C10.944 4.21546 10.8072 3.48587 10.5336 2.8576C10.26 2.22933 9.86987 1.7024 9.3632 1.2768C8.85653 0.851198 8.25867 0.532001 7.5696 0.3192C6.88053 0.106399 6.13067 0 5.32 0C4.20533 0 3.20214 0.248264 2.3104 0.7448C1.41866 1.24134 0.648537 1.87466 0 2.6448L1.9456 4.4384C2.39147 3.952 2.86773 3.56693 3.3744 3.2832C3.88107 2.99947 4.44853 2.8576 5.0768 2.8576C5.84694 2.8576 6.44986 3.08053 6.8856 3.5264C7.32134 3.97227 7.5392 4.56 7.5392 5.2896C7.5392 5.75574 7.42773 6.19146 7.2048 6.5968C6.98187 7.00214 6.7032 7.41253 6.3688 7.828C6.0344 8.24347 5.67974 8.66906 5.3048 9.1048C4.92986 9.54054 4.59547 10.0117 4.3016 10.5184C4.00773 11.0251 3.7848 11.5824 3.6328 12.1904ZM3.496 17.024C3.0704 17.4699 2.8576 18.0373 2.8576 18.7264C2.8576 19.4155 3.0704 19.9829 3.496 20.4288C3.9216 20.8747 4.45866 21.0976 5.1072 21.0976C5.75574 21.0976 6.29786 20.8747 6.7336 20.4288C7.16934 19.9829 7.3872 19.4155 7.3872 18.7264C7.3872 18.0373 7.16934 17.4699 6.7336 17.024C6.29786 16.5781 5.75574 16.3552 5.1072 16.3552C4.45866 16.3552 3.9216 16.5781 3.496 17.024Z" fill-rule="evenodd"/>
	</g>
</svg>
