<?xml version="1.0" standalone="no"?><!-- Generator: Gravit.io --><svg xmlns="http://www.w3.org/2000/svg" xmlns:xlink="http://www.w3.org/1999/xlink" style="isolation:isolate" viewBox="0 0 23 25" width="23" height="25"><defs><clipPath id="_clipPath_K0bVNcH8dQGili6bTabvOxayyEvqUXrj"><rect width="23" height="25"/></clipPath></defs><g clip-path="url(#_clipPath_K0bVNcH8dQGili6bTabvOxayyEvqUXrj)"><clipPath id="_clipPath_Jyt2bq5yUG8q4DA5S9fDkbTCa8DkVWEl"><rect x="0" y="0" width="23" height="25" transform="matrix(1,0,0,1,0,0)" fill="rgb(255,255,255)"/></clipPath><g clip-path="url(#_clipPath_Jyt2bq5yUG8q4DA5S9fDkbTCa8DkVWEl)"><g><path d=" M 10.577 19.344 C 7.55 19.344 5.088 16.309 5.088 12.579 C 5.088 8.848 7.55 5.814 10.577 5.814 C 13.603 5.814 16.065 8.848 16.065 12.579 C 16.065 16.309 13.603 19.344 10.577 19.344 Z  M 10.577 6.855 C 8.127 6.855 6.133 9.423 6.133 12.579 C 6.133 15.735 8.127 18.303 10.577 18.303 C 13.027 18.303 15.02 15.735 15.02 12.579 C 15.02 9.423 13.027 6.855 10.577 6.855 Z " fill="rgb(255,255,255)"/><path d=" M 15.544 18.067 C 15.255 18.067 15.021 17.834 15.021 17.546 L 15.021 6.492 C 15.021 6.204 15.255 5.971 15.544 5.971 C 15.833 5.971 16.066 6.204 16.066 6.492 L 16.066 17.547 C 16.066 17.834 15.832 18.067 15.544 18.067 Z " fill="rgb(255,255,255)"/><path d=" M 11.443 25 C 5.07 25 -0.114 19.392 -0.114 12.5 C -0.114 5.608 5.07 0 11.443 0 C 17.816 0 23 5.608 23 12.5 C 23 14.226 22.735 15.844 22.274 16.937 C 21.42 18.95 19.941 20.159 18.106 20.342 C 17.148 20.437 16.396 20.242 15.863 19.761 C 15.02 19.001 15.02 17.779 15.02 17.257 C 15.02 16.969 15.253 16.736 15.542 16.736 C 15.831 16.736 16.065 16.969 16.065 17.257 C 16.065 17.673 16.065 18.539 16.564 18.988 C 16.869 19.264 17.355 19.369 18.002 19.305 C 19.843 19.121 20.817 17.696 21.31 16.532 C 21.713 15.577 21.954 14.069 21.954 12.5 C 21.954 6.182 17.239 1.042 11.443 1.042 C 5.646 1.042 0.931 6.182 0.931 12.5 C 0.931 18.818 5.647 23.958 11.443 23.958 C 12.935 23.958 14.379 23.623 15.733 22.964 C 15.993 22.836 16.306 22.945 16.433 23.203 C 16.559 23.461 16.452 23.773 16.193 23.899 C 14.694 24.63 13.096 25 11.443 25 Z " fill="rgb(255,255,255)"/></g></g></g></svg>