<?xml version="1.0" standalone="no"?><!-- Generator: Gravit.io --><svg xmlns="http://www.w3.org/2000/svg" xmlns:xlink="http://www.w3.org/1999/xlink" style="isolation:isolate" viewBox="0 0 70 70" width="70" height="70"><defs><clipPath id="_clipPath_zziFJjeVvw4aIkvvCBrwdW2pFG8dZnUn"><rect width="70" height="70"/></clipPath></defs><g clip-path="url(#_clipPath_zziFJjeVvw4aIkvvCBrwdW2pFG8dZnUn)"><rect x="9.231" y="44.318" width="1.4" height="1.519" transform="matrix(1,0,0,1,0,0)" fill="rgb(0,150,57)"/><rect x="9.231" y="47.356" width="1.4" height="1.519" transform="matrix(1,0,0,1,0,0)" fill="rgb(0,150,57)"/><path d=" M 65.25 15.25 L 25.103 15.25 L 25.103 31.86 L 21.556 31.86 L 21.275 31.86 L 21.275 31.86 C 19.408 31.962 17.728 32.974 16.701 34.595 C 16.14 35.506 15.113 36.114 14.086 36.114 L 13.059 36.114 C 12.966 36.013 12.966 36.013 12.873 35.912 C 12.406 35.506 11.846 35.304 11.192 35.304 C 9.698 35.405 8.204 35.506 6.804 35.506 L 6.804 37.026 C 8.298 37.026 9.792 36.924 11.285 36.823 C 11.566 36.823 11.752 36.924 11.939 37.026 C 12.032 37.127 12.126 37.228 12.126 37.431 L 12.126 50.294 C 12.126 50.395 12.032 50.597 11.939 50.699 C 11.752 50.901 11.566 50.901 11.285 50.901 C 9.138 50.699 6.897 50.699 4.75 50.699 L 4.75 52.218 C 6.897 52.218 9.045 52.319 11.192 52.421 C 11.285 52.421 11.285 52.421 11.379 52.421 C 11.939 52.421 12.406 52.218 12.779 51.914 L 12.779 51.914 C 13.153 51.914 14.273 52.015 14.927 52.421 C 15.113 52.522 15.3 52.623 15.487 52.724 C 16.327 53.332 17.354 53.94 19.315 54.446 C 20.248 54.649 22.396 54.75 24.543 54.75 C 27.624 54.75 30.799 54.649 30.985 54.649 C 32.479 54.649 33.6 53.332 33.6 51.813 C 33.6 51.306 33.506 50.8 33.226 50.395 C 34.533 50.192 35.467 48.977 35.467 47.559 C 35.467 46.749 35.187 46.04 34.72 45.533 C 35.373 45.027 35.747 44.217 35.747 43.305 C 35.747 42.799 35.654 42.394 35.373 41.988 L 65.157 41.988 L 65.157 15.25 L 65.25 15.25 Z  M 19.595 52.927 C 17.821 52.522 16.981 51.914 16.14 51.408 C 15.954 51.306 15.767 51.205 15.58 51.003 C 14.927 50.597 14.086 50.395 13.433 50.395 C 13.433 50.395 13.433 50.294 13.433 50.294 L 13.433 37.633 L 13.993 37.633 C 15.487 37.633 16.887 36.823 17.728 35.506 C 18.568 34.19 19.968 33.379 21.462 33.379 L 31.546 33.379 L 32.853 33.379 C 32.573 35 31.172 36.317 29.772 36.317 L 23.049 36.317 L 23.049 37.026 C 23.049 37.228 22.956 42.596 18.101 43.609 L 18.381 45.128 C 23.143 44.217 24.17 39.659 24.356 37.836 L 25.103 37.836 L 25.103 41.887 L 25.57 41.887 C 25.383 42.292 25.197 42.799 25.197 43.204 C 25.197 44.014 25.57 44.824 26.037 45.331 C 25.477 45.837 25.197 46.647 25.197 47.458 C 25.197 48.268 25.57 49.078 26.037 49.585 C 25.477 50.091 25.197 50.901 25.197 51.712 C 25.197 52.218 25.383 52.724 25.57 53.231 C 23.049 53.231 20.435 53.231 19.595 52.927 Z  M 31.639 31.962 L 31.079 31.962 L 31.079 24.771 C 32.479 24.467 33.506 23.251 33.786 21.833 L 56.567 21.833 C 56.847 23.353 57.968 24.467 59.275 24.771 L 59.275 32.468 C 57.874 32.772 56.847 33.987 56.567 35.405 L 33.693 35.405 C 34.16 34.595 34.44 33.683 34.44 32.671 L 34.44 31.86 L 31.639 31.86 L 31.639 31.962 Z  M 30.892 53.028 C 30.892 53.028 27.904 53.129 27.811 53.129 C 27.157 53.129 26.597 52.421 26.597 51.712 C 26.597 51.003 27.157 50.395 27.811 50.395 L 30.892 50.395 C 31.546 50.395 32.106 51.003 32.106 51.712 C 32.199 52.421 31.639 53.028 30.892 53.028 Z  M 32.853 48.876 L 27.904 48.876 C 27.251 48.876 26.691 48.268 26.691 47.559 C 26.691 46.85 27.251 46.242 27.904 46.242 L 32.853 46.242 C 33.506 46.242 34.066 46.85 34.066 47.559 C 34.16 48.268 33.6 48.876 32.853 48.876 Z  M 34.346 43.305 C 34.346 44.014 33.786 44.622 33.133 44.622 L 27.904 44.622 C 27.251 44.622 26.691 44.014 26.691 43.305 C 26.691 42.596 27.251 41.988 27.904 41.988 L 33.133 41.988 C 33.786 41.887 34.346 42.495 34.346 43.305 Z  M 63.85 40.368 L 26.504 40.368 L 26.504 37.836 L 29.772 37.836 C 30.705 37.836 31.639 37.532 32.386 36.924 L 57.874 36.924 L 57.874 36.114 C 57.874 34.899 58.808 33.785 60.022 33.785 L 60.675 33.785 L 60.675 23.251 L 59.928 23.251 C 58.808 23.251 57.781 22.238 57.781 20.922 L 57.781 20.112 L 32.479 20.112 L 32.479 20.922 C 32.479 22.137 31.546 23.251 30.332 23.251 L 29.585 23.251 L 29.585 31.86 L 26.41 31.86 L 26.41 16.769 L 63.756 16.769 L 63.756 40.368 L 63.85 40.368 Z " fill="rgb(0,150,57)"/><path d=" M 45.177 32.468 C 47.137 32.468 48.725 30.746 48.725 28.619 C 48.725 26.492 47.137 24.771 45.177 24.771 C 43.216 24.771 41.629 26.492 41.629 28.619 C 41.629 30.746 43.216 32.468 45.177 32.468 Z  M 45.177 26.29 C 46.39 26.29 47.324 27.303 47.324 28.619 C 47.324 29.936 46.39 30.949 45.177 30.949 C 43.963 30.949 43.029 29.936 43.029 28.619 C 43.029 27.303 43.963 26.29 45.177 26.29 Z " fill="rgb(0,150,57)"/></g></svg>