<?xml version="1.0" standalone="no"?><!-- Generator: Gravit.io --><svg xmlns="http://www.w3.org/2000/svg" xmlns:xlink="http://www.w3.org/1999/xlink" style="isolation:isolate" viewBox="0 0 18 18" width="18" height="18"><defs><clipPath id="_clipPath_baKYgtpf4f0bcGZJOXdyBqT12SUekH6f"><rect width="18" height="18"/></clipPath></defs><g clip-path="url(#_clipPath_baKYgtpf4f0bcGZJOXdyBqT12SUekH6f)"><path d=" M 8.072 10.633 C 8.023 10.306 8.035 10.007 8.109 9.735 C 8.182 9.463 8.29 9.213 8.433 8.986 C 8.575 8.76 8.737 8.549 8.919 8.354 C 9.101 8.159 9.273 7.968 9.435 7.782 C 9.597 7.596 9.732 7.413 9.84 7.231 C 9.948 7.05 10.002 6.855 10.002 6.646 C 10.002 6.32 9.896 6.057 9.685 5.857 C 9.474 5.658 9.182 5.558 8.808 5.558 C 8.504 5.558 8.229 5.622 7.983 5.748 C 7.738 5.875 7.507 6.048 7.291 6.265 L 6.348 5.463 C 6.662 5.118 7.036 4.835 7.468 4.613 C 7.9 4.39 8.386 4.279 8.926 4.279 C 9.319 4.279 9.683 4.327 10.017 4.422 C 10.351 4.517 10.64 4.66 10.886 4.851 C 11.131 5.041 11.32 5.277 11.453 5.558 C 11.586 5.839 11.652 6.166 11.652 6.538 C 11.652 6.828 11.596 7.089 11.483 7.32 C 11.37 7.551 11.23 7.771 11.063 7.98 C 10.896 8.188 10.716 8.388 10.525 8.578 C 10.333 8.769 10.161 8.968 10.009 9.177 C 9.857 9.385 9.734 9.608 9.641 9.843 C 9.548 10.079 9.521 10.342 9.56 10.633 L 8.072 10.633 Z  M 7.733 12.66 C 7.733 12.351 7.836 12.097 8.042 11.898 C 8.249 11.698 8.509 11.598 8.823 11.598 C 9.138 11.598 9.4 11.698 9.611 11.898 C 9.823 12.097 9.928 12.351 9.928 12.66 C 9.928 12.968 9.823 13.222 9.611 13.421 C 9.4 13.621 9.138 13.721 8.823 13.721 C 8.509 13.721 8.249 13.621 8.042 13.421 C 7.836 13.222 7.733 12.968 7.733 12.66 Z " fill-rule="evenodd" fill="rgb(255,255,255)"/><path d=" M 9 16.2 C 12.976 16.2 16.2 12.976 16.2 9 C 16.2 5.024 12.976 1.8 9 1.8 C 5.024 1.8 1.8 5.024 1.8 9 C 1.8 12.976 5.024 16.2 9 16.2 Z  M 9 18 C 4.029 18 0 13.971 0 9 C 0 4.029 4.029 0 9 0 C 13.971 0 18 4.029 18 9 C 18 13.971 13.971 18 9 18 Z " fill="rgb(255,255,255)"/></g></svg>