<?xml version="1.0" standalone="no"?><!-- Generator: Gravit.io --><svg xmlns="http://www.w3.org/2000/svg" xmlns:xlink="http://www.w3.org/1999/xlink" style="isolation:isolate" viewBox="0 0 70 70" width="70" height="70"><defs><clipPath id="_clipPath_UWAIpnBdLe4Jf0CBRmzshtia9M9I9GeO"><rect width="70" height="70"/></clipPath></defs><g clip-path="url(#_clipPath_UWAIpnBdLe4Jf0CBRmzshtia9M9I9GeO)"><path d=" M 49.623 30.074 C 49.309 29.815 49.152 29.383 49.152 28.951 L 47.975 28.951 C 47.975 29.728 48.289 30.506 48.838 31.025 C 49.231 31.37 49.78 31.63 50.329 31.802 L 50.329 33.531 L 51.506 33.531 L 51.506 31.802 C 52.055 31.716 52.526 31.457 52.997 31.025 C 53.546 30.506 53.86 29.728 53.86 28.951 C 53.86 28.173 53.546 27.395 52.997 26.877 C 52.448 26.358 51.742 26.099 50.957 26.099 C 50.486 26.099 50.015 25.926 49.702 25.58 C 49.388 25.321 49.231 24.889 49.231 24.457 C 49.231 24.025 49.388 23.679 49.702 23.333 C 50.408 22.728 51.585 22.728 52.291 23.333 C 52.605 23.593 52.762 24.025 52.762 24.457 L 53.938 24.457 C 53.938 23.679 53.625 22.901 53.075 22.383 C 52.683 22.037 52.134 21.778 51.585 21.691 L 51.585 19.877 L 50.408 19.877 L 50.408 21.691 C 49.858 21.778 49.388 22.037 48.917 22.383 C 48.368 22.901 48.054 23.679 48.054 24.457 C 48.054 25.235 48.368 26.012 48.917 26.531 C 49.466 27.049 50.172 27.309 50.957 27.309 C 51.428 27.309 51.898 27.481 52.212 27.827 C 52.526 28.086 52.683 28.519 52.683 28.951 C 52.683 29.383 52.526 29.728 52.212 30.074 C 51.506 30.679 50.329 30.679 49.623 30.074 Z " fill="rgb(0,150,57)"/><path d=" M 61 26.79 C 61 20.654 56.449 15.642 50.878 15.642 C 47.034 15.642 43.66 18.062 41.934 21.605 L 32.989 14 L 23.025 22.296 L 23.025 16.593 L 17.768 16.593 L 17.768 26.79 L 10 33.272 L 10.706 34.309 L 14.472 31.111 L 14.472 54.704 L 10.785 54.704 L 10.785 56 L 55.194 56 L 55.194 54.704 L 51.506 54.704 L 51.506 37.852 C 56.763 37.506 61 32.667 61 26.79 Z  M 50.878 16.938 C 55.822 16.938 59.823 21.346 59.823 26.79 C 59.823 32.235 55.822 36.642 50.878 36.642 C 45.935 36.642 42.012 32.148 42.012 26.79 C 42.012 21.346 46.014 16.938 50.878 16.938 Z  M 18.945 17.889 L 21.926 17.889 L 21.926 23.333 L 18.945 25.84 L 18.945 17.889 Z  M 20.122 54.704 L 20.122 38.457 L 29.38 38.457 L 29.38 54.704 L 20.122 54.704 Z  M 30.557 54.704 L 30.557 37.16 L 18.945 37.16 L 18.945 54.704 L 15.649 54.704 L 15.649 30.16 L 32.989 15.642 L 41.463 22.815 C 41.071 24.025 40.757 25.407 40.757 26.79 C 40.757 32.667 44.994 37.506 50.251 37.852 L 50.251 54.704 L 30.557 54.704 Z " fill="rgb(0,150,57)"/><path d=" M 34.637 49.605 L 45.465 49.605 L 45.465 41.827 L 34.637 41.827 L 34.637 49.605 Z  M 35.814 43.037 L 44.288 43.037 L 44.288 48.222 L 35.814 48.222 L 35.814 43.037 Z " fill="rgb(0,150,57)"/><rect x="27.183" y="45.025" width="1.177" height="3.198" transform="matrix(1,0,0,1,0,0)" fill="rgb(0,150,57)"/></g></svg>