<?xml version="1.0" encoding="utf-8"?>
<!-- Generator: Adobe Illustrator 26.0.3, SVG Export Plug-In . SVG Version: 6.00 Build 0)  -->
<svg version="1.1" id="Capa_1" xmlns="http://www.w3.org/2000/svg" xmlns:xlink="http://www.w3.org/1999/xlink" x="0px" y="0px"
	 width="25px" height="25px" viewBox="0 0 25 25" enable-background="new 0 0 25 25" xml:space="preserve">
<g>
	<polygon fill="#FFFFFF" points="10.9,14.5 11.9,14.5 11.4,13.3 	"/>
	<path fill="#FFFFFF" d="M17.9,0.3H7.1c-5,0-6.9,1.9-6.9,6.9v10.8c0,5,1.9,6.9,6.9,6.9h10.8c5,0,6.9-1.9,6.9-6.9V7.1
		C24.7,2.1,22.9,0.3,17.9,0.3z M5.7,15.7H5.2v-1.3H3.7v1.3H3v-3.2h0.7v1.3h1.5v-1.3h0.7L5.7,15.7L5.7,15.7z M9.4,14.3
		c0,0.9-0.5,1.5-1.4,1.5s-1.4-0.5-1.4-1.4v-1.9h0.7v1.8C7.3,14.8,7.6,15,8,15c0.5,0,0.7-0.3,0.7-0.8v-1.9h0.7
		C9.4,12.4,9.4,14.3,9.4,14.3z M8.4,4.4H9c0,2,1.6,3.5,3.5,3.5S16,6.3,16,4.4h0.6c0,2.3-1.9,4.1-4.1,4.1C10.2,8.4,8.4,6.6,8.4,4.4z
		 M12.4,15.7L12.1,15h-1.5l-0.3,0.7H9.8l1.4-3.2h0.6l1.4,3.2H12.4z M16.5,15.7h-0.6l-0.7-2.1l-0.7,2.1H14l-1.1-3.2h0.7l0.7,2.2
		l0.7-2.2h0.5l0.7,2.2l0.7-2.2h0.7L16.5,15.7z M20.6,15.7h-2.4v-3.2h2.4v0.6h-1.7v0.7H20v0.6h-1.2v0.8h1.8V15.7z M22,15.7h-0.7v-3.2
		H22V15.7z"/>
</g>
</svg>
