<?xml version="1.0" encoding="utf-8"?>
<!-- Generator: Adobe Illustrator 24.2.3, SVG Export Plug-In . SVG Version: 6.00 Build 0)  -->
<svg version="1.1" id="Capa_1" xmlns="http://www.w3.org/2000/svg" xmlns:xlink="http://www.w3.org/1999/xlink" x="0px" y="0px"
	 viewBox="0 0 70 70" style="enable-background:new 0 0 70 70;" xml:space="preserve">
<style type="text/css">
	.st0{fill:#00953B;}
</style>
<g>
	<path class="st0" d="M44.7,46.9c-0.1-0.1-0.2-0.2-0.2-0.3h-1.3c0,0.5,0.3,1,0.6,1.4c0.3,0.2,0.5,0.3,0.8,0.4v0.7h1.3v-0.7
		c0.3-0.1,0.5-0.3,0.8-0.4c0.4-0.3,0.6-0.9,0.6-1.4s-0.3-1-0.6-1.4c-0.3-0.3-0.9-0.5-1.4-0.5c-0.3,0-0.4-0.1-0.6-0.2
		c-0.1-0.1-0.2-0.2-0.2-0.3c0-0.2,0.1-0.3,0.2-0.3c0.3-0.3,0.9-0.3,1.1,0c0.1,0.1,0.2,0.2,0.2,0.3h1.4c0-0.5-0.3-1-0.6-1.4
		c-0.3-0.2-0.5-0.3-0.8-0.4v-0.8h-1.3v0.8c-0.3,0.1-0.5,0.2-0.8,0.4c-0.4,0.3-0.6,0.9-0.6,1.4c0,0.5,0.3,1,0.6,1.4
		c0.3,0.3,0.9,0.5,1.4,0.5c0.3,0,0.4,0.1,0.6,0.2c0.1,0.1,0.2,0.2,0.2,0.3s-0.1,0.3-0.2,0.3C45.5,47.2,45,47.2,44.7,46.9z"/>
	<path class="st0" d="M60.5,38.9c-0.2-1.7-1.6-3-3.2-3h-10V23.4l4.4,3.4l0.8-1l-23-17.4l-12.2,9.2v-4.8h-1.3v5.8l-9.5,7.3l0.8,1
		l4.4-3.5v20.2H8.2V45H30v6.5c0,1.7,1.3,3.1,3,3.2c0.1,1.5,1.3,2.6,2.8,2.6h24.4c1.6,0,2.8-1.2,2.8-2.8V41.7
		C63.1,40.2,61.9,39.1,60.5,38.9z M17.2,43.7V30.4h8.1v13.3H17.2z M30,39.1v4.5h-3.4V29.2H15.9v14.5h-3V22.5L29.4,10l16.5,12.6V36
		H33.3C31.5,35.9,30,37.4,30,39.1z M31.3,51.3V39.1c0-1,0.9-1.9,1.9-1.9h23.9c1,0,1.9,0.9,1.9,1.9v12.2c0,1-0.9,1.9-1.9,1.9H33.3
		C32.2,53.4,31.3,52.5,31.3,51.3z M61.8,54.4c0,0.8-0.7,1.5-1.5,1.5H35.9c-0.8,0-1.4-0.5-1.5-1.3h22.9c1.8,0,3.2-1.5,3.2-3.2V40.2
		c0.7,0.1,1.3,0.7,1.3,1.5L61.8,54.4L61.8,54.4z"/>
	<path class="st0" d="M36.1,50.6v0.6h18.4v-0.6c0-1,0.9-1.9,1.9-1.9h0.6v-6.7h-0.6c-1,0-1.9-0.9-1.9-1.9v-0.7H36.1v0.6
		c0,1-0.9,1.9-1.9,1.9h-0.6v6.6h0.6C35.3,48.6,36.1,49.4,36.1,50.6z M34.8,43.2c1.3-0.3,2.3-1.3,2.5-2.5h15.9
		c0.3,1.3,1.3,2.3,2.5,2.5v4.2c-1.3,0.3-2.3,1.3-2.5,2.5H37.3c-0.3-1.3-1.3-2.3-2.5-2.5V43.2z"/>
	<path class="st0" d="M41.7,23.6H31V30h10.7V23.6z M40.4,28.7h-8.1v-3.7h8.1V28.7z"/>
</g>
</svg>
