<?xml version="1.0" standalone="no"?><!-- Generator: Gravit.io --><svg xmlns="http://www.w3.org/2000/svg" xmlns:xlink="http://www.w3.org/1999/xlink" style="isolation:isolate" viewBox="0 0 70 70" width="70" height="70"><defs><clipPath id="_clipPath_bH0Bd0NNERtfH0e6ozkYEiDD7UMh7QA2"><rect width="70" height="70"/></clipPath></defs><g clip-path="url(#_clipPath_bH0Bd0NNERtfH0e6ozkYEiDD7UMh7QA2)"><path d=" M 52.637 24.754 C 47.991 24.754 44.448 26.416 44.448 28.552 L 44.448 54.027 C 44.448 56.164 47.991 57.825 52.637 57.825 C 57.282 57.825 60.825 56.164 60.825 54.027 L 60.825 28.552 C 60.825 26.337 57.282 24.754 52.637 24.754 Z  M 59.644 54.027 C 59.644 55.214 56.652 56.638 52.637 56.638 C 48.621 56.638 45.629 55.214 45.629 54.027 L 45.629 49.597 C 47.046 50.705 49.566 51.337 52.637 51.337 C 55.707 51.337 58.227 50.625 59.644 49.597 L 59.644 54.027 Z  M 59.644 47.619 C 59.644 48.806 56.652 50.23 52.637 50.23 C 48.621 50.23 45.629 48.885 45.629 47.619 L 45.629 43.268 C 47.046 44.375 49.566 45.008 52.637 45.008 C 55.707 45.008 58.227 44.296 59.644 43.268 L 59.644 47.619 Z  M 59.644 41.29 C 59.644 42.476 56.652 43.901 52.637 43.901 C 48.621 43.901 45.629 42.476 45.629 41.29 L 45.629 36.938 C 47.046 38.046 49.566 38.679 52.637 38.679 C 55.707 38.679 58.227 37.967 59.644 36.938 L 59.644 41.29 Z  M 59.644 34.881 C 59.644 36.068 56.652 37.492 52.637 37.492 C 48.621 37.492 45.629 36.147 45.629 34.881 L 45.629 30.53 C 47.046 31.638 49.566 32.27 52.637 32.27 C 55.707 32.27 58.227 31.558 59.644 30.53 L 59.644 34.881 Z  M 52.637 31.084 C 48.621 31.084 45.629 29.739 45.629 28.473 C 45.629 27.286 48.621 25.862 52.637 25.862 C 56.652 25.862 59.644 27.207 59.644 28.473 C 59.644 29.739 56.573 31.084 52.637 31.084 Z " fill="rgb(0,150,57)"/><path d=" M 35 31.084 C 30.355 31.084 26.812 32.745 26.812 34.881 L 26.812 54.027 C 26.812 56.164 30.355 57.825 35 57.825 C 39.645 57.825 43.188 56.164 43.188 54.027 L 43.188 34.881 C 43.188 32.745 39.645 31.084 35 31.084 Z  M 42.007 54.027 C 42.007 55.214 39.015 56.638 35 56.638 C 30.985 56.638 27.993 55.293 27.993 54.027 L 27.993 49.597 C 29.41 50.705 31.929 51.337 35 51.337 C 38.071 51.337 40.59 50.625 42.007 49.597 L 42.007 54.027 Z  M 42.007 47.619 C 42.007 48.806 39.015 50.23 35 50.23 C 30.985 50.23 27.993 48.885 27.993 47.619 L 27.993 43.268 C 29.41 44.375 31.929 45.008 35 45.008 C 38.071 45.008 40.59 44.296 42.007 43.268 L 42.007 47.619 Z  M 42.007 41.29 C 42.007 42.476 39.015 43.901 35 43.901 C 30.985 43.901 27.993 42.556 27.993 41.29 L 27.993 36.938 C 29.41 38.046 31.929 38.679 35 38.679 C 38.071 38.679 40.59 37.967 42.007 36.938 L 42.007 41.29 Z  M 35 37.492 C 30.985 37.492 27.993 36.147 27.993 34.881 C 27.993 33.695 30.985 32.27 35 32.27 C 39.015 32.27 42.007 33.615 42.007 34.881 C 42.007 36.147 39.015 37.492 35 37.492 Z " fill="rgb(0,150,57)"/><path d=" M 17.363 37.492 C 12.718 37.492 9.175 39.154 9.175 41.29 L 9.175 54.027 C 9.175 56.164 12.718 57.825 17.363 57.825 C 22.009 57.825 25.552 56.164 25.552 54.027 L 25.552 41.29 C 25.552 39.074 22.088 37.492 17.363 37.492 Z  M 24.371 54.027 C 24.371 55.214 21.379 56.638 17.363 56.638 C 13.348 56.638 10.356 55.293 10.356 54.027 L 10.356 49.597 C 11.773 50.705 14.293 51.337 17.363 51.337 C 20.434 51.337 22.954 50.625 24.371 49.597 L 24.371 54.027 Z  M 24.371 47.619 C 24.371 48.806 21.379 50.23 17.363 50.23 C 13.348 50.23 10.356 48.885 10.356 47.619 L 10.356 43.268 C 11.773 44.375 14.293 45.008 17.363 45.008 C 20.434 45.008 22.954 44.296 24.371 43.268 L 24.371 47.619 Z  M 17.363 43.821 C 13.348 43.821 10.356 42.476 10.356 41.211 C 10.356 40.024 13.348 38.6 17.363 38.6 C 21.379 38.6 24.371 39.945 24.371 41.211 C 24.371 42.476 21.379 43.821 17.363 43.821 Z " fill="rgb(0,150,57)"/><path d=" M 52.007 17.713 L 53.188 17.713 L 53.188 12.175 L 47.598 12.175 L 47.598 13.362 L 51.141 13.362 L 42.795 21.748 L 28.386 21.748 L 16.97 33.22 L 17.836 34.011 L 28.859 22.935 L 43.267 22.935 L 52.007 14.153 L 52.007 17.713 Z " fill="rgb(0,150,57)"/></g></svg>