<?xml version="1.0" standalone="no"?><!-- Generator: Gravit.io --><svg xmlns="http://www.w3.org/2000/svg" xmlns:xlink="http://www.w3.org/1999/xlink" style="isolation:isolate" viewBox="0 0 70 70" width="70" height="70"><defs><clipPath id="_clipPath_fKXJ3ab07PjaDk6a84tp3pYiDEdiyn9W"><rect width="70" height="70"/></clipPath></defs><g clip-path="url(#_clipPath_fKXJ3ab07PjaDk6a84tp3pYiDEdiyn9W)"><path d=" M 37.051 29.769 C 36.723 29.538 36.559 29.231 36.559 28.846 L 35.328 28.846 C 35.328 29.538 35.656 30.154 36.231 30.615 C 36.641 30.923 37.133 31.154 37.626 31.231 L 37.626 32.692 L 38.856 32.692 L 38.856 31.231 C 39.431 31.154 39.923 30.923 40.251 30.615 C 40.826 30.154 41.154 29.538 41.154 28.846 C 41.154 28.154 40.826 27.538 40.251 27.077 C 39.677 26.615 38.938 26.385 38.2 26.385 C 37.708 26.385 37.297 26.231 36.969 26 C 36.641 25.769 36.477 25.462 36.477 25.077 C 36.477 24.769 36.641 24.462 36.969 24.154 C 37.626 23.615 38.774 23.615 39.431 24.154 C 39.759 24.385 39.923 24.692 39.923 25.077 L 41.154 25.077 C 41.154 24.385 40.826 23.769 40.251 23.308 C 39.841 23 39.349 22.769 38.856 22.692 L 38.856 21.231 L 37.626 21.231 L 37.626 22.692 C 37.133 22.769 36.559 23 36.231 23.308 C 35.656 23.769 35.328 24.385 35.328 25.077 C 35.328 25.769 35.656 26.385 36.231 26.846 C 36.805 27.308 37.544 27.538 38.282 27.538 C 38.774 27.538 39.185 27.692 39.513 27.923 C 39.841 28.154 40.005 28.462 40.005 28.846 C 40.005 29.154 39.841 29.462 39.513 29.769 C 38.856 30.308 37.708 30.308 37.051 29.769 Z " fill="rgb(0,150,57)"/><path d=" M 38.282 35.923 C 43.533 35.923 47.8 31.923 47.8 27 C 47.8 22.077 43.533 18.077 38.282 18.077 C 33.031 18.077 28.764 22.077 28.764 27 C 28.764 31.923 32.949 35.923 38.282 35.923 Z  M 38.282 19.154 C 42.877 19.154 46.651 22.692 46.651 27 C 46.651 31.308 42.877 34.846 38.282 34.846 C 33.687 34.846 29.913 31.308 29.913 27 C 29.913 22.692 33.687 19.154 38.282 19.154 Z " fill="rgb(0,150,57)"/><path d=" M 20.641 21.308 L 20.641 20.308 C 21.051 20.231 21.379 20.077 21.708 19.846 C 22.2 19.462 22.446 18.923 22.446 18.385 C 22.446 17.846 22.2 17.308 21.708 16.923 C 21.297 16.538 20.641 16.385 20.067 16.385 C 19.738 16.385 19.41 16.308 19.246 16.077 C 19.082 15.923 18.918 15.692 18.918 15.462 C 18.918 15.231 19 15.077 19.246 14.846 C 19.656 14.462 20.477 14.462 20.969 14.846 C 21.133 15 21.297 15.231 21.297 15.462 L 22.528 15.462 C 22.528 14.923 22.282 14.385 21.79 14 C 21.379 13.846 21.051 13.692 20.641 13.615 L 20.641 12.615 L 19.41 12.615 L 19.41 13.615 C 19 13.692 18.672 13.846 18.344 14.077 C 17.851 14.462 17.605 15 17.605 15.538 C 17.605 16.077 17.851 16.615 18.344 17 C 18.754 17.385 19.41 17.538 19.985 17.538 C 20.313 17.538 20.641 17.615 20.805 17.846 C 20.969 18 21.133 18.231 21.133 18.462 C 21.133 18.692 21.051 18.846 20.805 19.077 C 20.395 19.462 19.574 19.462 19.082 19.077 C 18.918 18.923 18.754 18.692 18.754 18.462 L 17.523 18.462 C 17.523 19 17.769 19.538 18.262 19.923 C 18.59 20.154 18.918 20.308 19.328 20.385 L 19.328 21.385 L 20.641 21.385 L 20.641 21.308 Z " fill="rgb(0,150,57)"/><path d=" M 27.451 17 C 27.451 13.154 24.087 10 19.985 10 C 15.882 10 12.6 13.154 12.6 17 C 12.6 20.846 15.964 24 20.067 24 C 24.169 24 27.451 20.846 27.451 17 Z  M 13.831 17 C 13.831 13.769 16.621 11.154 20.067 11.154 C 23.513 11.154 26.303 13.769 26.303 17 C 26.303 20.231 23.513 22.846 20.067 22.846 C 16.621 22.769 13.831 20.154 13.831 17 Z " fill="rgb(0,150,57)"/><path d=" M 57.4 33.308 L 57.4 28.308 L 52.231 28.308 L 52.231 29.462 L 55.349 29.462 L 39.349 44.462 L 31.144 36.769 L 17.359 49.615 L 18.262 50.462 L 22.118 46.846 L 22.118 58.923 L 18.097 58.923 L 18.097 60 L 57.4 60 L 57.4 58.846 L 53.462 58.846 L 53.462 32.846 L 56.251 30.231 L 56.251 33.308 L 57.4 33.308 Z  M 28.108 58.846 L 23.267 58.846 L 23.267 45.692 L 28.108 41.154 L 28.108 58.846 Z  M 34.097 58.846 L 29.256 58.846 L 29.256 40 L 31.062 38.308 L 34.097 41.154 L 34.097 58.846 Z  M 40.169 58.846 L 35.328 58.846 L 35.328 42.308 L 39.349 46.077 L 40.169 45.308 L 40.169 58.846 Z  M 46.159 58.846 L 41.318 58.846 L 41.318 44.154 L 46.159 39.615 L 46.159 58.846 Z  M 52.231 58.846 L 47.39 58.846 L 47.39 38.462 L 52.231 33.923 L 52.231 58.846 Z " fill="rgb(0,150,57)"/></g></svg>