<?xml version="1.0" standalone="no"?><!-- Generator: Gravit.io --><svg xmlns="http://www.w3.org/2000/svg" xmlns:xlink="http://www.w3.org/1999/xlink" style="isolation:isolate" viewBox="0 0 70 70" width="70" height="70"><defs><clipPath id="_clipPath_2B2yszLANAwQOtfBJWI38KiHoYLgTtdX"><rect width="70" height="70"/></clipPath></defs><g clip-path="url(#_clipPath_2B2yszLANAwQOtfBJWI38KiHoYLgTtdX)"><line x1="18.155" y1="43.463" x2="25.128" y2="36.71" vector-effect="non-scaling-stroke" stroke-width="1" stroke="rgb(0,150,57)" stroke-linejoin="round" stroke-linecap="round" stroke-miterlimit="10"/><ellipse vector-effect="non-scaling-stroke" cx="43.42264150943395" cy="23.45967741935484" rx="2.7169811320754746" ry="2.5645161290322562" fill="none" stroke-width="1" stroke="rgb(0,150,57)" stroke-linejoin="miter" stroke-linecap="butt" stroke-miterlimit="10"/><line x1="41.521" y1="60.218" x2="41.521" y2="43.976" vector-effect="non-scaling-stroke" stroke-width="1" stroke="rgb(0,150,57)" stroke-linejoin="round" stroke-linecap="round" stroke-miterlimit="10"/><path d=" M 45.143 52.524 L 47.86 49.96 L 45.143 47.395 C 45.143 47.395 47.86 44.831 47.86 44.831 L 45.143 42.266 C 45.143 42.266 47.86 39.702 47.86 39.702 L 47.86 36.197 C 51.664 34.573 54.2 30.982 54.2 26.879 C 54.2 25.426 53.838 24.058 53.294 22.776 C 51.664 19.185 47.77 16.621 43.332 16.621 C 37.355 16.621 32.464 21.237 32.464 26.879 C 32.464 30.982 35 34.573 38.804 36.197 L 38.804 39.018 L 38.804 36.197 L 38.804 58.508 C 38.804 58.508 43.332 61.5 43.332 61.5 L 47.86 58.508 L 47.86 55.089 C 47.86 55.089 45.143 52.524 45.143 52.524 Z " fill="none" vector-effect="non-scaling-stroke" stroke-width="1" stroke="rgb(0,150,57)" stroke-linejoin="miter" stroke-linecap="round" stroke-miterlimit="10"/><path d=" M 46.592 16.963 C 46.321 16.621 46.049 16.365 45.687 16.023 C 42.698 13.116 38.26 12.432 34.457 13.8 C 33.189 14.313 31.921 14.997 30.834 16.023 C 28.117 18.587 27.211 22.263 28.117 25.597 L 25.128 28.503 C 25.128 28.503 25.128 32.094 25.128 32.094 L 21.415 32.094 C 21.415 32.094 21.415 35.684 21.415 35.684 C 21.415 35.684 17.702 35.684 17.702 35.684 L 15.8 37.65 C 15.8 37.65 15.8 43.548 15.8 43.548 L 21.777 43.548 L 33.913 32.094" fill="none" vector-effect="non-scaling-stroke" stroke-width="1" stroke="rgb(0,150,57)" stroke-linejoin="miter" stroke-linecap="round" stroke-miterlimit="10"/><path d=" M 35 13.629 C 35.996 10.637 38.985 8.5 42.426 8.5 C 46.683 8.5 50.215 11.748 50.215 15.852 C 50.215 19.955 46.774 23.203 42.426 23.203 C 41.883 23.203 41.34 23.118 40.887 23.032" fill="none" vector-effect="non-scaling-stroke" stroke-width="1" stroke="rgb(0,150,57)" stroke-linejoin="miter" stroke-linecap="round" stroke-miterlimit="10"/></g></svg>