<?xml version="1.0" standalone="no"?><!-- Generator: Gravit.io --><svg xmlns="http://www.w3.org/2000/svg" xmlns:xlink="http://www.w3.org/1999/xlink" style="isolation:isolate" viewBox="0 0 75 75" width="75" height="75"><defs><clipPath id="_clipPath_E0wKMiPmKrXn7yzEZisDNTPhZrW2xAVO"><rect width="75" height="75"/></clipPath></defs><g clip-path="url(#_clipPath_E0wKMiPmKrXn7yzEZisDNTPhZrW2xAVO)"><path d=" M 48.983 32.44 C 49.339 32.8 49.605 33.25 49.605 33.7 L 50.938 33.7 C 50.938 32.89 50.582 32.08 49.872 31.45 C 49.427 31 48.806 30.73 48.095 30.64 L 48.095 28.66 L 46.762 28.66 L 46.762 30.64 C 46.14 30.73 45.518 31 44.985 31.45 C 44.275 32.08 43.919 32.8 43.919 33.7 C 43.919 34.51 44.275 35.32 44.985 35.95 C 45.607 36.49 46.496 36.85 47.384 36.85 C 48.006 36.85 48.539 37.03 48.894 37.39 C 49.25 37.75 49.516 38.2 49.516 38.65 C 49.516 39.1 49.339 39.55 48.894 39.91 C 48.095 40.63 46.584 40.63 45.785 39.91 C 45.429 39.55 45.163 39.1 45.163 38.65 L 43.83 38.65 C 43.83 39.46 44.186 40.27 44.896 40.9 C 45.341 41.35 45.963 41.62 46.673 41.71 L 46.673 43.69 L 48.006 43.69 L 48.006 41.71 C 48.628 41.62 49.25 41.35 49.783 40.9 C 50.494 40.27 50.849 39.55 50.849 38.65 C 50.849 37.84 50.494 37.03 49.783 36.4 C 49.161 35.86 48.273 35.5 47.384 35.5 C 46.762 35.5 46.229 35.32 45.874 34.96 C 45.518 34.6 45.252 34.15 45.252 33.7 C 45.252 33.25 45.429 32.8 45.874 32.44 C 46.673 31.72 48.095 31.72 48.983 32.44 Z " fill="rgb(0,150,57)"/><path d=" M 60 35.68 C 60 31.09 57.601 27.04 53.959 24.79 L 53.959 11.83 C 53.959 9.94 52.448 8.5 50.671 8.5 L 18.687 8.5 C 16.822 8.5 15.4 10.03 15.4 11.83 L 15.4 63.67 C 15.4 65.56 16.91 67 18.687 67 L 50.671 67 C 52.537 67 53.959 65.47 53.959 63.67 L 53.959 46.66 C 57.601 44.41 60 40.36 60 35.68 Z  M 52.626 63.67 C 52.626 64.75 51.737 65.65 50.671 65.65 L 18.687 65.65 C 17.621 65.65 16.733 64.75 16.733 63.67 L 16.733 11.83 C 16.733 10.75 17.621 9.85 18.687 9.85 L 50.671 9.85 C 51.737 9.85 52.626 10.75 52.626 11.83 L 52.626 24.07 C 51.649 23.62 50.671 23.35 49.605 23.08 L 49.605 16.33 L 19.665 16.33 L 19.665 58.45 L 49.694 58.45 L 49.694 48.28 C 50.76 48.1 51.737 47.74 52.715 47.29 L 52.715 63.67 L 52.626 63.67 Z  M 40.543 46.39 C 43.031 48.37 46.407 48.46 47.473 48.46 C 47.828 48.46 48.095 48.46 48.361 48.37 L 48.361 57.1 L 20.997 57.1 L 20.997 17.68 L 48.361 17.68 L 48.361 22.99 C 48.095 22.99 47.739 22.9 47.473 22.9 C 40.543 22.9 34.857 28.66 34.857 35.68 C 34.857 38.38 35.657 40.9 37.167 43.06 L 35.39 47.65 L 40.543 46.39 Z  M 47.384 47.11 C 45.429 47.11 42.764 46.57 41.076 45.13 L 40.81 44.95 L 37.522 45.76 L 38.588 42.88 L 38.322 42.61 C 36.812 40.63 36.012 38.2 36.012 35.68 C 36.012 29.38 41.076 24.25 47.295 24.25 C 53.514 24.25 58.578 29.38 58.578 35.68 C 58.667 41.98 53.603 47.11 47.384 47.11 Z " fill="rgb(0,150,57)"/><path d=" M 37.7 61.24 L 31.659 61.24 C 31.303 61.24 31.037 61.51 31.037 61.87 C 31.037 62.23 31.303 62.5 31.659 62.5 L 37.7 62.5 C 38.055 62.5 38.322 62.23 38.322 61.87 C 38.322 61.6 38.055 61.24 37.7 61.24 Z " fill="rgb(0,150,57)"/><rect x="28.282" y="12.01" width="9.24" height="1.35" transform="matrix(1,0,0,1,0,0)" fill="rgb(0,150,57)"/><rect x="39.033" y="12.01" width="1.333" height="1.35" transform="matrix(1,0,0,1,0,0)" fill="rgb(0,150,57)"/></g></svg>