<?xml version="1.0" standalone="no"?><!-- Generator: Gravit.io --><svg xmlns="http://www.w3.org/2000/svg" xmlns:xlink="http://www.w3.org/1999/xlink" style="isolation:isolate" viewBox="0 0 70 70" width="70" height="70"><defs><clipPath id="_clipPath_fOJM6pMPS3zE7gS1jCWVrcSLKFTHeVuZ"><rect width="70" height="70"/></clipPath></defs><g clip-path="url(#_clipPath_fOJM6pMPS3zE7gS1jCWVrcSLKFTHeVuZ)"><path d=" M 33.996 29.592 C 34.232 29.856 34.35 30.12 34.35 30.384 L 36.122 30.384 C 36.122 29.46 35.768 28.669 35.177 28.009 C 34.823 27.614 34.35 27.35 33.878 27.218 L 33.878 25.767 L 32.106 25.767 L 32.106 27.218 C 31.633 27.35 31.161 27.614 30.807 28.009 C 30.216 28.669 29.862 29.46 29.862 30.384 C 29.862 31.307 30.216 32.098 30.807 32.758 C 31.397 33.285 32.224 33.681 33.051 33.681 C 33.405 33.681 33.878 33.813 34.114 34.077 C 34.35 34.341 34.468 34.604 34.468 34.868 C 34.468 35.132 34.35 35.528 34.114 35.659 C 33.523 36.187 32.578 36.187 31.988 35.659 C 31.752 35.396 31.633 35.132 31.633 34.868 L 29.743 34.868 C 29.743 35.791 30.098 36.583 30.688 37.242 C 31.043 37.638 31.515 37.902 31.988 38.034 L 31.988 39.484 L 33.76 39.484 L 33.76 38.034 C 34.232 37.902 34.705 37.638 35.059 37.242 C 35.65 36.583 36.004 35.791 36.004 34.868 C 36.004 33.945 35.65 33.153 35.059 32.494 C 34.468 31.966 33.642 31.571 32.815 31.571 C 32.46 31.571 31.988 31.439 31.752 31.175 C 31.515 30.911 31.397 30.647 31.397 30.384 C 31.397 30.12 31.515 29.724 31.752 29.592 C 32.46 29.065 33.523 29.065 33.996 29.592 Z " fill="rgb(0,150,57)"/><path d=" M 57.503 21.283 L 57.503 15.875 L 8.362 15.875 L 8.362 49.377 L 13.206 49.377 L 13.206 54.125 L 61.638 54.125 L 61.638 21.283 L 57.503 21.283 Z  M 10.134 47.53 L 10.134 17.853 L 55.731 17.853 L 55.731 47.53 L 10.134 47.53 Z  M 59.984 52.147 L 14.978 52.147 L 14.978 49.377 L 57.503 49.377 L 57.503 23.261 L 59.984 23.261 L 59.984 52.147 Z " fill="rgb(0,150,57)"/><path d=" M 46.163 23.129 L 46.163 22.206 L 19.821 22.206 L 19.821 23.129 C 19.821 26.163 17.576 28.669 14.859 28.669 L 14.033 28.669 L 14.033 36.715 L 14.859 36.715 C 17.576 36.715 19.821 39.221 19.821 42.254 L 19.821 43.178 L 46.045 43.178 L 46.045 42.254 C 46.045 39.221 48.289 36.715 51.006 36.715 L 51.833 36.715 L 51.833 28.669 L 51.006 28.669 C 48.289 28.669 46.163 26.163 46.163 23.129 Z  M 50.179 34.868 C 47.226 35.264 44.745 37.902 44.391 41.331 L 21.475 41.331 C 21.12 38.034 18.758 35.264 15.686 34.868 L 15.686 30.647 C 18.639 30.252 21.12 27.614 21.475 24.184 L 44.391 24.184 C 44.745 27.482 47.108 30.252 50.179 30.647 L 50.179 34.868 Z " fill="rgb(0,150,57)"/></g></svg>