<?xml version="1.0" standalone="no"?><!-- Generator: Gravit.io --><svg xmlns="http://www.w3.org/2000/svg" xmlns:xlink="http://www.w3.org/1999/xlink" style="isolation:isolate" viewBox="0 0 26 26" width="26" height="26"><defs><clipPath id="_clipPath_kPac9NPfvbRB8CUObh4vHH5F6brtZve8"><rect width="26" height="26"/></clipPath></defs><g clip-path="url(#_clipPath_kPac9NPfvbRB8CUObh4vHH5F6brtZve8)"><g><g><path d=" M 10.824 13.685 L 5.209 13.685 C 4.819 13.685 4.502 13.992 4.502 14.37 C 4.502 14.748 4.819 15.054 5.209 15.054 L 10.826 15.054 C 11.216 15.054 11.533 14.748 11.533 14.37 L 11.533 14.367 C 11.531 13.989 11.214 13.684 10.824 13.685 L 10.824 13.685 Z  M 13.497 10.786 L 5.209 10.786 C 4.819 10.786 4.502 11.092 4.502 11.47 C 4.502 11.848 4.819 12.155 5.209 12.155 L 13.508 12.155 C 13.898 12.155 14.214 11.848 14.214 11.47 L 14.214 11.459 C 14.209 11.081 13.887 10.78 13.497 10.786 L 13.497 10.786 Z  M 13.497 10.786 L 5.209 10.786 C 4.819 10.786 4.502 11.092 4.502 11.47 C 4.502 11.848 4.819 12.155 5.209 12.155 L 13.508 12.155 C 13.898 12.155 14.214 11.848 14.214 11.47 L 14.214 11.459 C 14.209 11.081 13.887 10.78 13.497 10.786 L 13.497 10.786 Z  M 10.824 13.685 L 5.209 13.685 C 4.819 13.685 4.502 13.992 4.502 14.37 C 4.502 14.748 4.819 15.054 5.209 15.054 L 10.826 15.054 C 11.216 15.054 11.533 14.748 11.533 14.37 L 11.533 14.367 C 11.531 13.989 11.214 13.684 10.824 13.685 L 10.824 13.685 Z  M 10.824 13.685 L 5.209 13.685 C 4.819 13.685 4.502 13.992 4.502 14.37 C 4.502 14.748 4.819 15.054 5.209 15.054 L 10.826 15.054 C 11.216 15.054 11.533 14.748 11.533 14.37 L 11.533 14.367 C 11.531 13.989 11.214 13.684 10.824 13.685 L 10.824 13.685 Z  M 13.497 10.786 L 5.209 10.786 C 4.819 10.786 4.502 11.092 4.502 11.47 C 4.502 11.848 4.819 12.155 5.209 12.155 L 13.508 12.155 C 13.898 12.155 14.214 11.848 14.214 11.47 L 14.214 11.459 C 14.209 11.081 13.887 10.78 13.497 10.786 L 13.497 10.786 Z  M 13.497 10.786 L 5.209 10.786 C 4.819 10.786 4.502 11.092 4.502 11.47 C 4.502 11.848 4.819 12.155 5.209 12.155 L 13.508 12.155 C 13.898 12.155 14.214 11.848 14.214 11.47 L 14.214 11.459 C 14.209 11.081 13.887 10.78 13.497 10.786 L 13.497 10.786 Z  M 10.824 13.685 L 5.209 13.685 C 4.819 13.685 4.502 13.992 4.502 14.37 C 4.502 14.748 4.819 15.054 5.209 15.054 L 10.826 15.054 C 11.216 15.054 11.533 14.748 11.533 14.37 L 11.533 14.367 C 11.531 13.989 11.214 13.684 10.824 13.685 L 10.824 13.685 Z  M 10.824 13.685 L 5.209 13.685 C 4.819 13.685 4.502 13.992 4.502 14.37 C 4.502 14.748 4.819 15.054 5.209 15.054 L 10.826 15.054 C 11.216 15.054 11.533 14.748 11.533 14.37 L 11.533 14.367 C 11.531 13.989 11.214 13.684 10.824 13.685 L 10.824 13.685 Z  M 13.497 10.786 L 5.209 10.786 C 4.819 10.786 4.502 11.092 4.502 11.47 C 4.502 11.848 4.819 12.155 5.209 12.155 L 13.508 12.155 C 13.898 12.155 14.214 11.848 14.214 11.47 L 14.214 11.459 C 14.209 11.081 13.887 10.78 13.497 10.786 L 13.497 10.786 Z  M 16.503 16.193 C 16.503 16.919 15.896 17.508 15.147 17.508 L 9.436 17.508 C 9.248 17.508 9.069 17.579 8.936 17.707 L 7.051 19.534 C 7.024 19.565 6.979 19.574 6.941 19.556 C 6.903 19.541 6.879 19.505 6.879 19.465 L 6.879 18.178 C 6.879 17.801 6.562 17.494 6.172 17.494 L 3.561 17.494 C 2.813 17.494 2.205 16.905 2.205 16.18 L 2.205 9.964 C 2.205 9.239 2.813 8.65 3.561 8.65 L 15.147 8.65 C 15.896 8.65 16.503 9.239 16.503 9.964 L 16.503 16.193 Z  M 15.144 7.281 L 3.559 7.281 C 2.03 7.282 0.791 8.483 0.789 9.964 L 0.789 16.193 C 0.791 17.675 2.03 18.875 3.559 18.877 L 5.455 18.877 L 5.455 19.476 C 5.455 20.287 6.133 20.944 6.969 20.944 C 7.371 20.944 7.756 20.789 8.04 20.514 L 9.736 18.871 L 15.144 18.871 C 16.67 18.87 17.909 17.672 17.913 16.193 L 17.913 9.964 C 17.912 8.483 16.673 7.282 15.144 7.281 L 15.144 7.281 Z  M 10.824 13.685 L 5.209 13.685 C 4.819 13.685 4.502 13.992 4.502 14.37 C 4.502 14.748 4.819 15.054 5.209 15.054 L 10.826 15.054 C 11.216 15.054 11.533 14.748 11.533 14.37 L 11.533 14.367 C 11.531 13.989 11.214 13.684 10.824 13.685 L 10.824 13.685 Z  M 13.497 10.786 L 5.209 10.786 C 4.819 10.786 4.502 11.092 4.502 11.47 C 4.502 11.848 4.819 12.155 5.209 12.155 L 13.508 12.155 C 13.898 12.155 14.214 11.848 14.214 11.47 L 14.214 11.459 C 14.209 11.081 13.887 10.78 13.497 10.786 L 13.497 10.786 Z  M 13.497 10.786 L 5.209 10.786 C 4.819 10.786 4.502 11.092 4.502 11.47 C 4.502 11.848 4.819 12.155 5.209 12.155 L 13.508 12.155 C 13.898 12.155 14.214 11.848 14.214 11.47 L 14.214 11.459 C 14.209 11.081 13.887 10.78 13.497 10.786 L 13.497 10.786 Z  M 10.824 13.685 L 5.209 13.685 C 4.819 13.685 4.502 13.992 4.502 14.37 C 4.502 14.748 4.819 15.054 5.209 15.054 L 10.826 15.054 C 11.216 15.054 11.533 14.748 11.533 14.37 L 11.533 14.367 C 11.531 13.989 11.214 13.684 10.824 13.685 L 10.824 13.685 Z  M 10.824 13.685 L 5.209 13.685 C 4.819 13.685 4.502 13.992 4.502 14.37 C 4.502 14.748 4.819 15.054 5.209 15.054 L 10.826 15.054 C 11.216 15.054 11.533 14.748 11.533 14.37 L 11.533 14.367 C 11.531 13.989 11.214 13.684 10.824 13.685 L 10.824 13.685 Z  M 13.497 10.786 L 5.209 10.786 C 4.819 10.786 4.502 11.092 4.502 11.47 C 4.502 11.848 4.819 12.155 5.209 12.155 L 13.508 12.155 C 13.898 12.155 14.214 11.848 14.214 11.47 L 14.214 11.459 C 14.209 11.081 13.887 10.78 13.497 10.786 L 13.497 10.786 Z  M 13.497 10.786 L 5.209 10.786 C 4.819 10.786 4.502 11.092 4.502 11.47 C 4.502 11.848 4.819 12.155 5.209 12.155 L 13.508 12.155 C 13.898 12.155 14.214 11.848 14.214 11.47 L 14.214 11.459 C 14.209 11.081 13.887 10.78 13.497 10.786 L 13.497 10.786 Z  M 10.824 13.685 L 5.209 13.685 C 4.819 13.685 4.502 13.992 4.502 14.37 C 4.502 14.748 4.819 15.054 5.209 15.054 L 10.826 15.054 C 11.216 15.054 11.533 14.748 11.533 14.37 L 11.533 14.367 C 11.531 13.989 11.214 13.684 10.824 13.685 L 10.824 13.685 Z " fill-rule="evenodd" fill="rgb(0,150,57)"/><path d=" M 24.506 16.117 C 24.49 16.551 24.256 16.95 23.879 17.185 C 23.798 17.241 23.715 17.293 23.627 17.338 C 23.415 17.447 23.277 17.654 23.257 17.885 C 23.01 21.429 19.976 24.182 16.311 24.191 L 15.746 24.191 C 15.506 24.191 15.283 24.31 15.153 24.506 C 15.023 24.703 14.799 24.824 14.559 24.826 L 12.104 24.826 C 11.709 24.826 11.389 24.516 11.389 24.134 L 11.389 22.814 L 11.389 22.811 C 11.394 22.428 11.721 22.124 12.115 22.13 L 14.57 22.13 C 14.811 22.132 15.034 22.253 15.164 22.45 C 15.294 22.646 15.517 22.765 15.757 22.765 L 16.322 22.765 C 19.141 22.743 21.495 20.673 21.79 17.957 C 21.813 17.729 21.717 17.507 21.536 17.363 C 21.338 17.198 21.191 16.983 21.115 16.741 C 21.036 16.501 20.996 16.251 20.996 15.999 L 20.996 13.181 C 20.994 12.947 21.027 12.713 21.095 12.489 C 21.198 12.112 21.481 11.807 21.855 11.667 C 22.146 11.565 22.334 11.291 22.319 10.991 L 22.319 10.95 C 22.307 10.562 22.271 10.178 22.211 9.794 C 21.382 5.01 16.751 1.75 11.798 2.464 C 9.884 2.705 8.101 3.538 6.712 4.838 C 6.708 4.842 6.704 4.845 6.701 4.849 C 6.625 4.923 6.568 5.011 6.535 5.104 L 4.59 5.104 C 4.709 4.953 4.834 4.807 4.963 4.663 C 7.715 1.618 11.205 0.463 15.345 1.23 C 17.532 1.635 19.517 2.738 20.982 4.365 C 22.846 6.333 23.842 8.931 23.757 11.602 C 23.75 11.812 23.845 12.015 24.011 12.149 C 24.321 12.39 24.503 12.753 24.506 13.137 C 24.523 14.167 24.52 15.169 24.506 16.117 Z " fill-rule="evenodd" fill="rgb(0,150,57)"/></g></g></g></svg>