<?xml version="1.0" standalone="no"?><!-- Generator: Gravit.io --><svg xmlns="http://www.w3.org/2000/svg" xmlns:xlink="http://www.w3.org/1999/xlink" style="isolation:isolate" viewBox="0 0 26 26" width="26" height="26"><defs><clipPath id="_clipPath_A6p4iEZPze08hWUIvvJDlnqUoIYF5JFv"><rect width="26" height="26"/></clipPath></defs><g clip-path="url(#_clipPath_A6p4iEZPze08hWUIvvJDlnqUoIYF5JFv)"><path d=" M 13 13.7 C 9.907 13.7 7.4 11.193 7.4 8.1 C 7.4 5.007 9.907 2.5 13 2.5 C 16.093 2.5 18.6 5.007 18.6 8.1 C 18.6 11.193 16.093 13.7 13 13.7 Z  M 13 3.9 C 10.68 3.9 8.8 5.78 8.8 8.1 C 8.8 10.42 10.68 12.3 13 12.3 C 15.32 12.3 17.2 10.42 17.2 8.1 C 17.2 5.78 15.32 3.9 13 3.9 Z " fill="rgb(179,179,179)"/><path d=" M 22.8 23.599 L 3.2 23.599 C 2.813 23.599 2.5 23.286 2.5 22.899 L 2.5 22.724 C 2.5 18.601 4.957 15.332 9.234 13.743 C 9.496 13.647 9.791 13.715 9.983 13.918 C 10.774 14.735 11.863 15.196 13 15.196 C 14.137 15.196 15.226 14.735 16.017 13.918 C 16.209 13.715 16.504 13.647 16.766 13.743 C 21.043 15.332 23.5 18.601 23.5 22.724 L 23.5 22.899 C 23.5 23.286 23.187 23.599 22.8 23.599 Z  M 3.9 22.199 L 22.1 22.199 C 21.862 18.048 18.803 16.081 16.696 15.199 C 14.586 17.04 11.442 17.04 9.332 15.199 C 7.211 16.081 4.152 18.048 3.9 22.199 Z " fill="rgb(179,179,179)"/></g></svg>