<?xml version="1.0" standalone="no"?><!-- Generator: Gravit.io --><svg xmlns="http://www.w3.org/2000/svg" xmlns:xlink="http://www.w3.org/1999/xlink" style="isolation:isolate" viewBox="0 0 70 70" width="70" height="70"><defs><clipPath id="_clipPath_IFNRxmKJTBfnclxmfGzMOvZM0BQuGsEh"><rect width="70" height="70"/></clipPath></defs><g clip-path="url(#_clipPath_IFNRxmKJTBfnclxmfGzMOvZM0BQuGsEh)"><rect x="55.523" y="34.292" width="8.227" height="1.327" transform="matrix(1,0,0,1,0,0)" fill="rgb(0,150,57)"/><rect x="6.25" y="34.292" width="8.227" height="1.327" transform="matrix(1,0,0,1,0,0)" fill="rgb(0,150,57)"/><rect x="34.292" y="6.25" width="1.327" height="8.227" transform="matrix(1,0,0,1,0,0)" fill="rgb(0,150,57)"/><rect x="34.292" y="55.523" width="1.327" height="8.227" transform="matrix(1,0,0,1,0,0)" fill="rgb(0,150,57)"/><path d=" M 58.531 31.815 L 59.858 31.638 C 58.354 20.404 49.508 11.558 38.273 10.142 L 38.096 11.469 C 48.712 12.796 57.115 21.2 58.531 31.815 Z " fill="rgb(0,150,57)"/><path d=" M 31.904 11.469 L 31.727 10.142 C 20.492 11.558 11.646 20.404 10.142 31.638 L 11.469 31.815 C 12.885 21.2 21.288 12.796 31.904 11.469 Z " fill="rgb(0,150,57)"/><path d=" M 38.096 58.531 L 38.273 59.858 C 49.596 58.442 58.442 49.508 59.858 38.185 L 58.531 38.096 C 57.204 48.712 48.8 57.115 38.096 58.531 Z " fill="rgb(0,150,57)"/><path d=" M 11.469 38.096 L 10.142 38.273 C 11.558 49.508 20.404 58.442 31.727 59.858 L 31.904 58.531 C 21.2 57.115 12.796 48.712 11.469 38.096 Z " fill="rgb(0,150,57)"/><path d=" M 18.9 44.908 L 51.012 44.908 L 51.012 25.092 L 18.9 25.092 L 18.9 44.908 Z  M 20.315 26.508 L 49.773 26.508 L 49.773 43.581 L 20.315 43.581 L 20.315 26.508 Z " fill="rgb(0,150,57)"/><path d=" M 44.731 29.427 L 44.731 28.719 L 25.269 28.719 L 25.269 29.427 C 25.269 30.577 24.385 31.462 23.235 31.462 L 22.527 31.462 L 22.527 38.538 L 23.235 38.538 C 24.385 38.538 25.269 39.423 25.269 40.573 L 25.269 41.281 L 44.731 41.281 L 44.731 40.573 C 44.731 39.423 45.615 38.538 46.765 38.538 L 47.473 38.538 L 47.473 31.462 L 46.765 31.462 C 45.615 31.462 44.731 30.577 44.731 29.427 Z  M 46.058 37.3 C 44.731 37.565 43.669 38.627 43.404 39.954 L 26.508 39.954 C 26.242 38.627 25.181 37.565 23.854 37.3 L 23.854 32.788 C 25.181 32.523 26.242 31.462 26.508 30.135 L 43.492 30.135 C 43.758 31.462 44.819 32.523 46.146 32.788 L 46.146 37.3 L 46.058 37.3 Z " fill="rgb(0,150,57)"/><path d=" M 35 32.081 C 33.408 32.081 32.081 33.408 32.081 35 C 32.081 36.592 33.408 37.919 35 37.919 C 36.592 37.919 37.919 36.592 37.919 35 C 37.919 33.408 36.592 32.081 35 32.081 Z  M 35 36.592 C 34.115 36.592 33.408 35.885 33.408 35 C 33.408 34.115 34.115 33.408 35 33.408 C 35.885 33.408 36.592 34.115 36.592 35 C 36.592 35.885 35.885 36.592 35 36.592 Z " fill="rgb(0,150,57)"/></g></svg>