<?xml version="1.0" standalone="no"?><!-- Generator: Gravit.io --><svg xmlns="http://www.w3.org/2000/svg" xmlns:xlink="http://www.w3.org/1999/xlink" style="isolation:isolate" viewBox="0 0 70 70" width="70" height="70"><defs><clipPath id="_clipPath_WDbtr68suSm5LRjn8Kp4Ag0iHeGpkiEs"><rect width="70" height="70"/></clipPath></defs><g clip-path="url(#_clipPath_WDbtr68suSm5LRjn8Kp4Ag0iHeGpkiEs)"><path d=" M 35 11.682 C 28.12 11.692 22.544 17.18 22.534 23.952 L 22.534 28.052 L 22.329 28.052 C 19.243 28.055 16.743 30.516 16.74 33.552 L 16.74 52.817 C 16.743 55.853 19.243 58.314 22.329 58.317 L 47.671 58.317 C 50.757 58.314 53.257 55.853 53.26 52.817 L 53.26 33.576 C 53.257 30.539 50.757 28.078 47.671 28.075 L 47.466 28.075 L 47.466 23.952 C 47.456 17.18 41.88 11.692 35 11.682 L 35 11.682 Z  M 24.299 23.952 C 24.299 18.135 29.09 13.42 35 13.42 C 40.91 13.42 45.701 18.135 45.701 23.952 L 45.701 28.052 L 24.299 28.052 L 24.299 23.952 Z  M 51.472 33.576 L 51.472 52.817 C 51.468 54.894 49.758 56.577 47.648 56.58 L 22.329 56.58 C 20.218 56.577 18.508 54.894 18.505 52.817 L 18.505 33.576 C 18.508 31.498 20.218 29.815 22.329 29.812 L 47.671 29.812 C 49.773 29.828 51.468 31.507 51.472 33.576 Z " fill="rgb(0,150,57)"/><path d=" M 35 38.185 C 33.088 38.187 31.48 39.596 31.255 41.465 C 31.03 43.333 32.259 45.073 34.118 45.515 L 34.118 51.612 C 34.118 52.092 34.513 52.481 35 52.481 C 35.487 52.481 35.882 52.092 35.882 51.612 L 35.882 45.515 C 37.741 45.073 38.97 43.333 38.745 41.465 C 38.52 39.596 36.912 38.187 35 38.185 Z  M 35 43.888 C 33.889 43.888 32.988 43.001 32.988 41.908 C 32.988 40.814 33.889 39.928 35 39.928 C 36.111 39.928 37.012 40.814 37.012 41.908 C 37.009 43 36.11 43.885 35 43.888 L 35 43.888 Z " fill="rgb(0,150,57)"/></g></svg>