<?xml version="1.0" standalone="no"?><!-- Generator: Gravit.io --><svg xmlns="http://www.w3.org/2000/svg" xmlns:xlink="http://www.w3.org/1999/xlink" style="isolation:isolate" viewBox="0 0 25 25" width="25" height="25"><defs><clipPath id="_clipPath_GO2nl7hH6ZOeDM06KGd4TfFjVMceszq7"><rect width="25" height="25"/></clipPath></defs><g clip-path="url(#_clipPath_GO2nl7hH6ZOeDM06KGd4TfFjVMceszq7)"><clipPath id="_clipPath_yTOSNRgcEE0GBcj1OWHBleOfLwdT5PSn"><rect x="0" y="0" width="25" height="25" transform="matrix(1,0,0,1,0,0)" fill="rgb(255,255,255)"/></clipPath><g clip-path="url(#_clipPath_yTOSNRgcEE0GBcj1OWHBleOfLwdT5PSn)"><g><path d=" M 22.489 6.242 C 22.503 6.516 22.503 6.789 22.502 7.061 C 22.475 15.392 17.289 24.975 7.864 24.947 C 4.961 24.938 2.267 23.894 0.003 22.092 C 0.416 22.152 0.813 22.173 1.241 22.175 C 3.636 22.181 5.845 21.194 7.611 19.502 C 5.359 19.436 3.477 17.616 2.834 15.116 C 3.152 15.177 3.469 15.216 3.802 15.217 C 4.261 15.219 4.722 15.142 5.15 15.006 C 2.805 14.414 1.052 11.872 1.061 8.809 L 1.061 8.731 C 1.742 9.202 2.534 9.497 3.375 9.538 C 1.998 8.402 1.1 6.467 1.106 4.283 C 1.109 3.111 1.367 2.039 1.814 1.105 C 4.325 4.936 8.109 7.445 12.361 7.733 C 12.283 7.264 12.237 6.775 12.239 6.288 C 12.25 2.816 14.544 -0.006 17.383 0.002 C 18.859 0.006 20.189 0.772 21.122 2.005 C 22.281 1.734 23.392 1.211 24.378 0.492 C 23.994 1.955 23.18 3.181 22.116 3.958 C 23.147 3.825 24.147 3.477 25.069 2.992 C 24.367 4.239 23.491 5.348 22.489 6.242 L 22.489 6.242 Z " fill="rgb(255,255,255)"/></g></g></g></svg>