<?xml version="1.0" encoding="utf-8"?>
<!-- Generator: Adobe Illustrator 26.0.3, SVG Export Plug-In . SVG Version: 6.00 Build 0)  -->
<svg version="1.1" id="Capa_1" xmlns="http://www.w3.org/2000/svg" xmlns:xlink="http://www.w3.org/1999/xlink" x="0px" y="0px"
	 width="25px" height="25px" viewBox="0 0 25 25" enable-background="new 0 0 25 25" xml:space="preserve">
<g>
	<path fill="#FFFFFF" d="M0.7,24.4l1.7-5.9c-1.1-1.8-1.6-3.9-1.6-6C0.7,6,6,0.7,12.5,0.7S24.3,6,24.3,12.5S19,24.4,12.5,24.4
		c-2,0-4-0.5-5.8-1.5L0.7,24.4z M7.1,20.7l0.4,0.2c1.5,0.9,3.3,1.4,5.1,1.4c5.4,0,9.8-4.4,9.8-9.8S18,2.7,12.6,2.7s-9.8,4.4-9.8,9.8
		c0,1.9,0.5,3.7,1.5,5.3l0.2,0.4l-1,3.4L7.1,20.7z"/>
	<path fill="#FFFFFF" d="M9.2,7H8.4C8.2,7,8,7.1,7.8,7.2c-0.4,0.3-1,0.9-1.1,1.8c-0.3,1.2,0.1,2.7,1.2,4.2s3.1,3.9,6.7,4.9
		c1.2,0.3,2.1,0.1,2.8-0.3c0.6-0.4,0.9-0.9,1.1-1.6l0.1-0.6c0-0.2-0.1-0.4-0.2-0.4L15.8,14c-0.2-0.1-0.4,0-0.5,0.1l-1,1.3
		c-0.1,0.1-0.2,0.1-0.3,0.1c-0.7-0.2-3-1.2-4.3-3.7c-0.1-0.1,0-0.2,0-0.3l1-1.1c0.1-0.1,0.1-0.3,0.1-0.4L9.5,7.2
		C9.5,7.1,9.3,7.1,9.2,7z"/>
</g>
</svg>
